<?xml version="1.0" standalone="no"?>
<!DOCTYPE svg PUBLIC "-//W3C//DTD SVG 20010904//EN"
 "http://www.w3.org/TR/2001/REC-SVG-20010904/DTD/svg10.dtd">
<svg version="1.0" xmlns="http://www.w3.org/2000/svg"
 width="100%" height="100%" viewBox="650 860 2760 2130"
 preserveAspectRatio="xMidYMid meet">

<g transform="translate(0.000000,4000.000000) scale(0.100000,-0.100000)"
fill="#FFFFFF" stroke="none">
<path d="M22665 31310 c-4 -6 -3 -16 3 -22 6 -6 12 -6 17 2 4 6 3 16 -3 22 -6
6 -12 6 -17 -2z"/>
<path d="M19215 31240 c4 -6 11 -8 16 -5 14 9 11 15 -7 15 -8 0 -12 -5 -9 -10z"/>
<path d="M20540 31159 c0 -5 5 -7 10 -4 6 3 10 8 10 11 0 2 -4 4 -10 4 -5 0
-10 -5 -10 -11z"/>
<path d="M21853 31094 c-8 -21 13 -42 28 -27 13 13 5 43 -11 43 -6 0 -13 -7
-17 -16z"/>
<path d="M23181 31021 c-15 -10 -8 -41 9 -41 15 0 25 29 14 40 -5 5 -15 5 -23
1z"/>
<path d="M19727 30964 c-14 -15 -6 -34 14 -34 14 0 19 5 17 17 -3 18 -20 27
-31 17z"/>
<path d="M21043 30874 c-8 -21 13 -42 28 -27 13 13 5 43 -11 43 -6 0 -13 -7
-17 -16z"/>
<path d="M22356 30814 c-19 -19 -20 -25 -3 -48 19 -26 61 -18 65 13 3 15 -3
30 -14 38 -23 17 -29 16 -48 -3z"/>
<path d="M18910 30730 c0 -15 5 -20 18 -18 9 2 17 10 17 18 0 8 -8 16 -17 18
-13 2 -18 -3 -18 -18z"/>
<path d="M23684 30719 c-3 -6 0 -17 8 -25 13 -13 16 -13 27 0 7 8 10 20 6 26
-8 13 -32 13 -41 -1z"/>
<path d="M20232 30671 c-23 -14 -10 -46 18 -46 20 0 25 5 25 25 0 26 -20 36
-43 21z"/>
<path d="M25015 30640 c-4 -6 -3 -16 3 -22 6 -6 12 -6 17 2 4 6 3 16 -3 22 -6
6 -12 6 -17 -2z"/>
<path d="M21551 30604 c-37 -26 -21 -74 26 -74 29 0 48 33 34 59 -15 27 -35
32 -60 15z"/>
<path d="M26340 30550 c0 -5 5 -10 10 -10 6 0 10 5 10 10 0 6 -4 10 -10 10 -5
0 -10 -4 -10 -10z"/>
<path d="M22862 30528 c-20 -20 -14 -66 9 -79 33 -17 69 3 69 39 0 33 -16 52
-45 52 -12 0 -26 -5 -33 -12z"/>
<path d="M18110 30509 c0 -5 5 -7 10 -4 6 3 10 8 10 11 0 2 -4 4 -10 4 -5 0
-10 -5 -10 -11z"/>
<path d="M19410 30455 c-14 -17 -5 -51 16 -59 22 -8 54 11 54 32 0 38 -46 56
-70 27z"/>
<path d="M24194 30425 c-8 -21 2 -45 19 -45 21 0 38 25 31 44 -8 20 -43 21
-50 1z"/>
<path d="M20731 30386 c-17 -21 -10 -56 15 -73 19 -12 24 -11 45 6 20 16 22
23 14 47 -12 33 -54 44 -74 20z"/>
<path d="M16391 30344 c-15 -34 -15 -36 16 -32 33 4 42 32 15 47 -16 8 -21 6
-31 -15z"/>
<path d="M25513 30344 c-3 -8 2 -23 11 -32 15 -15 17 -15 32 0 21 21 11 48
-16 48 -11 0 -23 -7 -27 -16z"/>
<path d="M22053 30338 c-29 -14 -45 -61 -33 -94 9 -23 45 -44 76 -44 23 0 64
47 64 73 0 51 -61 88 -107 65z"/>
<path d="M26855 30250 c3 -5 8 -10 11 -10 2 0 4 5 4 10 0 6 -5 10 -11 10 -5 0
-7 -4 -4 -10z"/>
<path d="M18612 30238 c-7 -7 -12 -18 -12 -25 0 -15 30 -32 48 -26 17 7 15 50
-4 57 -20 8 -18 8 -32 -6z"/>
<path d="M23367 30232 c-22 -25 -21 -55 2 -76 27 -25 72 -17 90 15 13 24 13
29 -2 53 -21 31 -66 35 -90 8z"/>
<path d="M19910 30171 c-23 -43 2 -91 47 -91 42 0 71 68 41 98 -20 20 -76 15
-88 -7z"/>
<path d="M24708 30149 c-44 -25 -3 -93 42 -69 26 14 26 56 1 70 -23 12 -22 12
-43 -1z"/>
<path d="M21220 30103 c-16 -20 -20 -36 -16 -57 8 -40 22 -54 63 -62 45 -9 83
24 83 73 0 71 -86 101 -130 46z"/>
<path d="M22570 30073 c-78 -29 -90 -142 -19 -178 41 -22 73 -18 107 10 69 58
42 150 -48 169 -14 3 -32 2 -40 -1z"/>
<path d="M26024 30056 c-10 -26 1 -51 22 -54 27 -4 47 21 39 48 -7 24 -53 28
-61 6z"/>
<path d="M17780 30030 c0 -35 35 -83 112 -155 77 -71 214 -166 263 -182 32
-11 74 -8 88 6 14 14 24 74 17 108 -4 17 -20 52 -35 78 -22 39 -38 52 -89 75
-70 32 -226 76 -303 86 -50 6 -53 5 -53 -16z"/>
<path d="M19107 29962 c-35 -38 -9 -102 40 -102 47 0 71 71 35 103 -24 22 -55
21 -75 -1z"/>
<path d="M23875 29945 c-14 -13 -25 -33 -25 -45 0 -26 43 -70 68 -70 30 0 72
38 72 66 0 30 -41 74 -70 74 -11 0 -32 -11 -45 -25z"/>
<path d="M20410 29895 c-71 -75 42 -184 115 -110 16 15 25 36 25 55 0 71 -91
107 -140 55z"/>
<path d="M16730 29885 c0 -26 30 -77 43 -72 19 6 20 36 3 62 -18 28 -46 33
-46 10z"/>
<path d="M21733 29865 c-70 -30 -82 -130 -24 -189 27 -26 39 -31 81 -31 42 0
54 5 81 31 99 100 -7 246 -138 189z"/>
<path d="M25201 29861 c-12 -12 -21 -29 -21 -39 0 -31 29 -62 58 -62 33 0 45
8 62 39 10 20 9 27 -7 50 -26 33 -65 39 -92 12z"/>
<path d="M15757 29802 c-34 -35 -34 -57 -1 -79 31 -20 54 -10 65 29 7 27 -8
69 -26 75 -6 2 -23 -9 -38 -25z"/>
<path d="M23083 29788 c-17 -4 -43 -23 -58 -40 -23 -27 -26 -39 -22 -76 6 -59
40 -93 98 -99 35 -4 50 0 73 18 101 80 32 230 -91 197z"/>
<path d="M26546 29767 c-26 -19 -17 -51 17 -55 31 -4 47 20 30 46 -13 22 -26
24 -47 9z"/>
<path d="M18310 29725 c-20 -25 -8 -50 25 -50 24 0 31 5 33 24 6 37 -34 55
-58 26z"/>
<path d="M19625 29711 c-33 -14 -58 -49 -58 -81 0 -89 93 -132 154 -71 47 48
38 116 -21 146 -32 17 -45 18 -75 6z"/>
<path d="M10486 29691 c-4 -5 3 -15 15 -21 28 -15 34 -7 10 14 -12 11 -21 13
-25 7z"/>
<path d="M24381 29664 c-61 -51 -26 -144 54 -144 79 0 112 84 56 141 -36 36
-70 37 -110 3z"/>
<path d="M20924 29651 c-46 -28 -64 -59 -64 -108 0 -35 6 -50 33 -78 79 -86
207 -34 207 84 0 87 -104 147 -176 102z"/>
<path d="M14280 29635 c-13 -15 -6 -65 8 -65 21 0 41 26 36 47 -8 27 -29 36
-44 18z"/>
<path d="M22221 29598 c-98 -66 -99 -200 -1 -265 40 -28 106 -30 156 -7 100
48 112 201 21 266 -47 34 -132 37 -176 6z"/>
<path d="M25705 29575 c-43 -42 -24 -107 36 -127 27 -10 78 19 86 49 10 37 6
53 -20 81 -27 30 -71 29 -102 -3z"/>
<path d="M11240 29499 c0 -45 65 -117 86 -96 9 9 -14 78 -32 98 -24 26 -54 25
-54 -2z"/>
<path d="M23571 29503 c-50 -26 -74 -64 -74 -116 0 -58 30 -100 86 -122 40
-15 46 -15 85 0 55 22 85 65 85 121 0 97 -99 161 -182 117z"/>
<path d="M17520 29490 c0 -5 5 -10 11 -10 5 0 7 5 4 10 -3 6 -8 10 -11 10 -2
0 -4 -4 -4 -10z"/>
<path d="M18790 29453 c-39 -50 -3 -123 59 -123 33 1 57 19 70 53 30 78 -77
135 -129 70z"/>
<path d="M27054 29455 c-8 -19 3 -35 26 -35 19 0 30 17 23 38 -6 17 -42 15
-49 -3z"/>
<path d="M20115 29450 c-67 -27 -96 -128 -57 -192 27 -44 64 -63 118 -62 128
3 175 152 75 237 -34 28 -92 36 -136 17z"/>
<path d="M11010 29427 c0 -8 11 -24 25 -37 29 -27 35 -9 9 28 -17 25 -34 29
-34 9z"/>
<path d="M21437 29416 c-75 -28 -119 -89 -119 -166 0 -56 19 -97 66 -138 109
-96 286 -12 286 136 0 120 -123 208 -233 168z"/>
<path d="M24884 29401 c-61 -37 -69 -124 -16 -173 51 -48 109 -48 162 2 25 23
30 36 30 75 0 40 -5 52 -34 81 -40 40 -92 46 -142 15z"/>
<path d="M28225 29359 c-10 -15 3 -25 16 -12 7 7 7 13 1 17 -6 3 -14 1 -17 -5z"/>
<path d="M22735 29334 c-45 -23 -66 -45 -86 -89 -35 -75 -14 -164 50 -218 28
-23 86 -47 116 -47 60 0 148 60 171 117 38 89 -11 209 -99 242 -41 16 -117 13
-152 -5z"/>
<path d="M16713 29323 c-7 -3 -13 -19 -13 -38 0 -40 17 -56 48 -44 47 18 12
98 -35 82z"/>
<path d="M26215 29275 c-14 -13 -25 -36 -25 -50 0 -35 42 -75 78 -75 65 0 102
72 62 123 -29 36 -81 37 -115 2z"/>
<path d="M24105 29240 c-48 -11 -82 -38 -105 -84 -25 -53 -25 -79 1 -132 33
-69 110 -105 178 -83 70 22 111 79 111 152 0 93 -94 168 -185 147z"/>
<path d="M19286 29219 c-106 -83 -51 -239 85 -239 35 0 48 6 80 39 46 45 53
88 27 153 -24 63 -137 91 -192 47z"/>
<path d="M18015 29214 c-8 -9 -15 -19 -15 -24 0 -11 29 -40 40 -40 10 0 40 29
40 38 -1 29 -44 46 -65 26z"/>
<path d="M14566 29204 c-21 -20 -20 -27 4 -49 24 -21 46 -14 62 20 10 22 9 28
-3 36 -21 13 -46 11 -63 -7z"/>
<path d="M20614 29201 c-106 -48 -149 -186 -84 -274 20 -26 20 -28 4 -23 -11
3 -77 10 -149 16 -71 6 -137 12 -145 15 -8 2 -62 6 -119 10 -89 6 -110 10
-144 33 -33 22 -52 27 -102 27 -39 0 -70 -6 -85 -16 -22 -14 -81 -17 -425 -22
-220 -3 -416 -8 -435 -11 -19 -2 -80 -7 -135 -11 -55 -3 -113 -8 -128 -11 -21
-4 -35 0 -51 15 -12 11 -36 24 -54 27 -28 6 -37 2 -65 -28 -28 -30 -42 -36
-93 -42 -68 -8 -196 -28 -369 -57 -552 -93 -1098 -245 -1621 -452 -656 -259
-1317 -623 -1853 -1019 l-93 -70 -19 21 c-23 25 -32 26 -49 6 -17 -20 6 -48
33 -41 24 6 27 9 -93 -84 -575 -446 -1145 -1034 -1594 -1644 -179 -244 -487
-719 -539 -833 -9 -20 -11 -21 -33 -6 -22 14 -24 14 -33 -8 -7 -19 -6 -27 8
-38 16 -14 8 -32 -102 -248 -252 -496 -455 -1009 -596 -1510 -22 -78 -47 -154
-57 -167 -9 -14 -14 -33 -10 -41 3 -9 -10 -82 -28 -163 -124 -534 -194 -1059
-213 -1577 l-6 -180 -34 34 c-30 30 -38 33 -76 28 -55 -8 -87 -43 -87 -98 0
-100 130 -136 183 -51 16 26 16 17 17 -178 0 -113 5 -271 10 -352 l10 -148
-25 -39 c-49 -74 -42 -153 19 -214 31 -31 33 -38 50 -177 10 -80 31 -224 47
-320 17 -96 31 -206 33 -245 2 -49 9 -83 25 -113 12 -23 24 -61 26 -84 2 -23
9 -53 14 -67 6 -14 24 -82 41 -151 17 -69 47 -181 67 -250 25 -87 36 -148 37
-200 2 -81 17 -122 66 -175 16 -17 39 -65 55 -115 16 -47 54 -152 86 -235 57
-146 58 -150 40 -170 -43 -47 -56 -87 -56 -175 0 -69 5 -93 23 -127 46 -87
130 -146 227 -160 l46 -6 60 -118 c32 -65 59 -122 59 -127 0 -4 -16 -14 -37
-21 -20 -8 -63 -40 -97 -72 -33 -33 -61 -59 -63 -59 -1 0 5 17 14 38 9 21 16
65 16 102 0 114 -58 206 -161 257 -75 37 -173 38 -245 4 -94 -46 -167 -160
-167 -262 0 -25 -5 -39 -13 -39 -20 0 -92 -56 -106 -84 -13 -23 -16 -24 -35
-11 -51 36 -99 0 -77 -58 12 -31 78 -66 124 -67 32 0 34 13 7 58 -12 19 -16
31 -11 28 12 -8 76 47 98 84 l16 28 27 -56 c67 -141 235 -206 374 -144 27 12
50 22 52 22 2 0 4 -17 4 -39 0 -23 9 -51 23 -72 12 -19 31 -55 40 -81 10 -26
31 -63 48 -84 16 -20 29 -38 29 -39 0 -1 -30 -1 -66 1 -61 3 -69 6 -93 34 -22
26 -32 31 -61 28 -24 -2 -38 -10 -44 -24 -8 -18 -16 -20 -60 -16 -28 2 -51 5
-52 6 -1 0 -4 15 -7 32 -5 27 -3 30 16 30 18 -1 23 5 25 30 4 43 -35 90 -66
80 -12 -4 -22 -12 -22 -17 0 -6 -15 1 -32 14 -112 84 -236 84 -329 0 -62 -56
-83 -105 -83 -188 -1 -87 20 -131 89 -198 64 -63 93 -75 185 -76 41 0 83 -2
94 -3 26 -4 46 31 26 44 -12 8 -7 18 33 60 48 49 49 49 70 31 12 -10 23 -18
24 -18 2 -1 -6 -25 -17 -53 -11 -29 -20 -63 -20 -76 0 -23 -2 -23 -39 -14 -50
13 -91 -5 -104 -45 -20 -61 32 -110 119 -112 50 0 54 -2 84 -43 94 -130 290
-161 432 -68 l27 17 -2 -63 c-1 -80 4 -138 13 -138 4 0 13 -14 21 -31 7 -18
24 -45 38 -62 l26 -31 -25 8 c-99 31 -121 34 -154 25 -35 -10 -76 -50 -76 -75
0 -7 -8 -18 -19 -23 -10 -6 -34 -32 -53 -58 -89 -124 -74 -288 36 -398 28 -28
70 -60 92 -70 32 -13 40 -22 37 -36 -5 -16 1 -19 34 -19 22 0 48 7 59 15 10 8
27 15 36 15 10 0 41 9 71 20 185 69 257 292 150 464 l-25 39 44 -7 c55 -8 140
9 194 39 l41 22 7 -60 c7 -65 44 -158 79 -196 l22 -23 -42 7 c-56 9 -152 -17
-208 -55 -196 -135 -172 -432 43 -537 74 -36 181 -39 253 -6 173 78 241 286
146 444 l-33 54 86 0 c72 0 93 4 140 27 30 15 64 34 75 42 19 15 20 13 21 -52
1 -148 106 -271 254 -301 60 -12 139 -3 187 23 26 13 29 12 91 -43 35 -31 74
-76 87 -101 32 -61 92 -117 148 -138 27 -10 93 -56 151 -105 147 -122 306
-245 475 -367 l145 -106 58 -109 c32 -61 58 -113 58 -116 0 -4 -15 -10 -34
-13 -106 -20 -137 -141 -53 -212 27 -22 38 -25 79 -22 31 3 57 13 71 27 l23
21 17 -53 c10 -28 49 -153 88 -277 124 -394 190 -495 359 -555 123 -43 281
-40 505 11 61 14 139 32 175 40 79 18 270 29 333 20 46 -7 46 -7 26 -27 -39
-39 -12 -99 44 -99 34 0 62 40 53 76 -6 23 -5 25 16 18 51 -15 147 -69 205
-116 118 -93 238 -286 313 -503 32 -92 92 -318 104 -390 l7 -40 -54 -17 c-30
-9 -63 -15 -73 -12 -12 3 -27 -3 -37 -14 -16 -18 -16 -21 -2 -35 8 -9 15 -22
15 -29 0 -20 21 -38 44 -38 11 0 42 21 68 47 26 26 49 45 51 42 3 -2 19 -87
37 -189 120 -693 188 -917 319 -1050 75 -75 116 -93 219 -98 77 -4 88 -2 147
27 79 39 165 129 227 237 24 43 48 87 51 97 9 23 21 22 53 -8 30 -28 75 -33
93 -11 23 28 -9 88 -67 126 l-24 15 30 75 c16 41 82 230 147 419 160 472 239
651 350 799 102 136 251 217 420 229 249 17 481 -144 555 -385 52 -167 75
-434 66 -762 -14 -534 -75 -1040 -276 -2295 -82 -509 -143 -934 -165 -1135 -9
-80 -18 -161 -20 -180 -3 -19 -8 -143 -11 -275 -6 -215 -4 -250 14 -335 58
-280 217 -477 452 -562 56 -20 83 -23 195 -23 118 1 137 3 200 28 267 105 440
369 501 764 11 73 16 170 16 298 0 258 -15 372 -182 1345 -177 1034 -231 1431
-260 1907 -23 395 -2 758 60 1021 58 246 223 483 454 655 86 63 273 159 346
176 212 49 370 2 531 -159 172 -172 242 -307 500 -970 100 -258 177 -390 253
-435 82 -48 157 -24 255 80 97 105 128 181 330 820 291 919 463 1358 701 1792
l50 91 232 155 c961 639 1709 1380 2354 2332 313 462 607 1018 817 1545 338
849 530 1728 579 2652 l12 228 21 -20 c40 -38 105 -15 105 37 0 26 -59 79 -98
88 l-29 6 -6 297 c-6 290 -21 512 -53 777 -15 130 -49 366 -60 418 -6 27 -5
27 35 21 30 -5 51 -1 85 16 119 57 122 219 6 278 -54 27 -94 28 -143 3 -27
-14 -39 -16 -42 -8 -1 7 -26 109 -54 227 -28 118 -54 225 -57 236 -5 19 1 23
46 34 128 31 185 176 113 287 -43 65 -161 95 -232 58 -18 -9 -34 -15 -36 -13
-1 2 -17 48 -35 103 -18 55 -55 158 -81 229 -27 71 -49 133 -49 137 0 4 15 4
33 -1 71 -16 166 31 202 100 66 127 -27 280 -171 280 -60 0 -106 -23 -149 -73
-39 -45 -39 -44 -35 50 2 63 -25 128 -69 166 -18 15 -37 27 -42 27 -5 0 -47
75 -93 168 -46 92 -111 216 -144 276 l-60 109 54 44 c63 52 87 92 87 148 0 48
-34 120 -66 136 -12 7 -39 26 -59 42 -35 28 -38 34 -38 83 0 68 -7 84 -35 84
-16 0 -40 -18 -72 -55 -27 -30 -64 -60 -83 -66 -31 -11 -35 -10 -49 12 -9 13
-65 93 -125 179 -59 85 -111 161 -114 169 -4 11 2 12 29 7 77 -15 158 -18 194
-6 71 23 154 122 155 183 0 11 9 30 20 44 40 51 16 140 -56 202 -29 26 -42 31
-63 26 -14 -3 -33 -6 -41 -5 -8 0 -50 3 -93 5 -43 2 -94 9 -114 16 -19 6 -54
9 -78 6 l-42 -6 0 43 c0 154 -128 286 -278 286 -58 0 -142 -32 -182 -69 -38
-35 -46 -29 -32 25 35 126 -59 295 -191 345 -42 16 -72 20 -131 17 l-75 -3
-51 45 c-28 25 -60 64 -71 87 -12 22 -33 54 -47 71 l-26 31 49 -6 c83 -9 157
19 224 85 45 46 59 69 73 115 30 103 -2 214 -85 291 -111 104 -277 98 -388
-15 l-43 -44 15 36 c53 127 6 280 -110 360 -55 37 -152 63 -207 54 -56 -9
-126 -41 -157 -70 l-26 -25 4 69 c6 101 -17 162 -87 232 -116 115 -287 122
-407 16 -29 -25 -45 -35 -41 -24 41 109 -6 253 -107 325 -123 89 -279 72 -384
-42 -46 -49 -57 -73 -73 -148 -6 -26 -14 -48 -17 -48 -4 1 -26 11 -49 23 l-43
22 47 35 c27 20 59 58 77 90 27 48 31 65 31 130 0 65 -4 82 -31 130 -71 127
-220 179 -350 125 -45 -19 -112 -82 -137 -129 -13 -27 -23 -68 -26 -117 l-6
-76 -130 53 c-117 48 -126 53 -90 54 94 1 201 86 230 184 19 63 19 80 -1 147
-20 67 -97 148 -160 167 -97 29 -186 10 -255 -55 -50 -47 -89 -126 -89 -182 0
-52 31 -132 66 -171 l35 -38 -201 69 c-191 66 -203 71 -250 118 -31 31 -66 55
-96 65 -55 18 -147 21 -192 5 -25 -8 -48 -7 -106 7 l-74 17 -6 40 c-14 88 -77
162 -165 192 -87 30 -164 12 -231 -54 -26 -25 -51 -53 -56 -62 -8 -15 -16 -15
-89 -2 -116 22 -113 19 -77 56 57 59 68 138 31 215 -42 85 -146 122 -235 83z
m3153 -1348 c-3 -10 -8 -30 -11 -46 -6 -25 -9 -26 -29 -16 -12 7 -24 13 -26
16 -4 3 59 61 67 63 2 0 1 -8 -1 -17z m505 -358 l-4 -56 -31 20 c-18 11 -32
25 -32 30 0 6 16 22 35 35 19 14 35 25 35 26 0 0 -2 -25 -3 -55z m542 -242
c-8 -25 -14 -60 -14 -78 0 -48 28 -131 55 -163 59 -71 15 -47 -121 65 -57 47
-101 89 -99 93 3 4 17 10 32 13 37 8 117 61 137 92 24 36 26 31 10 -22z
m-4849 -2503 c543 -57 1089 -232 1560 -498 123 -69 409 -262 515 -347 331
-265 600 -557 835 -910 366 -548 587 -1171 650 -1833 17 -180 20 -555 5 -722
-73 -797 -365 -1517 -879 -2165 -120 -152 -420 -452 -576 -577 -601 -481
-1257 -759 -2043 -865 -162 -22 -739 -25 -902 -5 -600 74 -1119 250 -1612 545
-512 308 -916 689 -1247 1177 -613 905 -828 2001 -600 3074 249 1180 1052
2209 2134 2735 484 236 952 360 1530 405 87 7 526 -3 630 -14z m-7751 -8650
c33 0 75 -5 93 -12 26 -10 38 -10 53 -1 17 11 19 8 29 -38 6 -27 20 -67 31
-89 11 -22 20 -42 20 -45 0 -3 -18 -5 -40 -5 -52 0 -134 -32 -183 -71 -41 -33
-39 -12 2 25 29 27 28 56 -3 56 -19 0 -26 7 -31 33 -10 45 -42 107 -73 139
l-25 28 34 -10 c19 -6 61 -10 93 -10z m592 -434 l61 -82 -48 -26 -49 -26 0 57
c0 35 -9 77 -24 113 -13 31 -18 54 -12 51 6 -3 38 -42 72 -87z"/>
<path d="M19237 23255 c-252 -31 -498 -101 -691 -194 -331 -161 -570 -415
-670 -716 -74 -220 -76 -536 -5 -748 68 -207 220 -406 407 -538 54 -37 61 -45
46 -54 -9 -5 -69 -44 -133 -86 -287 -189 -465 -451 -522 -769 -21 -117 -17
-374 8 -490 72 -333 255 -594 557 -795 245 -163 534 -266 909 -323 165 -25
724 -24 887 1 278 44 504 109 698 202 499 240 772 619 798 1110 26 479 -192
874 -614 1111 l-83 47 67 45 c101 68 229 195 295 295 101 155 154 310 168 500
28 386 -93 710 -360 961 -233 219 -566 365 -989 432 -144 22 -622 28 -773 9z
m608 -794 c209 -56 366 -180 425 -338 78 -209 29 -449 -121 -587 -71 -66 -206
-134 -319 -162 -107 -27 -394 -27 -495 0 -131 34 -229 88 -309 168 -109 110
-148 206 -149 368 -1 221 98 389 290 487 146 75 239 94 448 89 112 -3 170 -9
230 -25z m20 -1869 c308 -66 512 -239 570 -483 19 -80 19 -204 1 -290 -52
-244 -267 -429 -576 -496 -121 -26 -429 -26 -550 0 -354 77 -562 293 -577 602
-10 197 40 329 173 462 67 67 98 89 175 127 99 47 207 79 324 95 105 15 354 5
460 -17z"/>
<path d="M21950 29171 c-74 -23 -117 -61 -149 -131 -49 -108 -1 -234 112 -292
59 -29 159 -23 216 15 124 82 137 257 26 355 -62 55 -136 74 -205 53z"/>
<path d="M27582 29151 c2 -7 7 -12 11 -12 12 1 9 15 -3 20 -7 2 -11 -2 -8 -8z"/>
<path d="M25402 29130 c-57 -26 -88 -90 -72 -149 13 -49 52 -88 102 -102 35
-9 46 -7 86 13 38 19 50 32 66 71 19 47 19 47 0 95 -15 38 -28 51 -64 70 -54
27 -63 27 -118 2z"/>
<path d="M10775 29130 c-8 -13 14 -42 26 -34 5 3 9 14 9 25 0 20 -24 26 -35 9z"/>
<path d="M16475 29123 c-73 -15 -108 -50 -120 -120 -18 -113 88 -273 183 -273
36 0 86 44 115 100 36 70 34 138 -6 199 -42 63 -118 105 -172 94z"/>
<path d="M23245 29061 c-74 -33 -125 -113 -125 -197 0 -47 47 -132 89 -159 95
-62 195 -51 269 29 52 57 68 112 53 182 -29 128 -168 199 -286 145z"/>
<path d="M15630 29013 c0 -28 -14 -58 -60 -128 -138 -210 -143 -357 -11 -342
53 6 88 30 124 88 71 116 71 370 -1 408 -39 21 -52 14 -52 -26z"/>
<path d="M26754 28982 c-6 -4 -16 -17 -23 -30 -25 -48 38 -98 84 -68 33 21 34
69 3 90 -24 17 -47 20 -64 8z"/>
<path d="M17225 28970 c3 -5 8 -10 11 -10 2 0 4 5 4 10 0 6 -5 10 -11 10 -5 0
-7 -4 -4 -10z"/>
<path d="M24580 28964 c-54 -23 -89 -63 -106 -121 -19 -65 -7 -117 39 -170
101 -114 278 -70 319 80 37 140 -117 269 -252 211z"/>
<path d="M25925 28831 c-33 -14 -72 -59 -78 -90 -9 -43 10 -97 44 -125 57 -49
150 -34 189 29 50 81 2 183 -90 191 -25 2 -54 0 -65 -5z"/>
<path d="M23760 28797 c-49 -16 -123 -93 -138 -143 -19 -66 -15 -124 14 -182
95 -191 369 -163 429 43 26 88 1 170 -74 238 -60 54 -147 71 -231 44z"/>
<path d="M26605 28730 c-9 -15 3 -30 24 -30 25 0 33 11 20 27 -13 15 -35 17
-44 3z"/>
<path d="M10857 28723 c-14 -13 -7 -43 11 -44 48 -3 72 12 52 36 -13 15 -51
21 -63 8z"/>
<path d="M25085 28681 c-50 -23 -101 -79 -116 -130 -37 -123 65 -256 196 -255
172 1 265 203 152 331 -39 44 -98 73 -152 73 -22 0 -58 -9 -80 -19z"/>
<path d="M27270 28656 c-27 -33 18 -72 48 -42 13 13 14 20 6 34 -15 23 -38 26
-54 8z"/>
<path d="M10343 28603 c-22 -8 -15 -62 12 -88 13 -14 30 -25 38 -25 38 0 63
80 35 108 -12 12 -62 15 -85 5z"/>
<path d="M24270 28520 c-66 -22 -140 -96 -158 -157 -30 -99 -8 -186 63 -260
49 -50 120 -83 180 -83 12 0 46 7 76 16 67 20 148 97 167 160 30 100 9 187
-63 261 -38 39 -63 55 -104 67 -69 20 -93 20 -161 -4z"/>
<path d="M25805 28520 c-17 -19 -17 -21 -1 -39 15 -16 21 -18 37 -8 25 16 35
47 18 58 -21 13 -34 11 -54 -11z"/>
<path d="M26419 28481 c-32 -33 -37 -67 -14 -110 29 -57 115 -65 155 -14 74
94 -57 208 -141 124z"/>
<path d="M28126 28495 c4 -9 11 -14 16 -13 15 5 11 23 -6 26 -11 2 -14 -2 -10
-13z"/>
<path d="M25642 28379 c-18 -3 -50 -19 -71 -34 -102 -70 -98 -223 6 -295 30
-20 49 -25 103 -25 58 0 71 4 104 29 71 53 95 150 56 225 -17 35 -72 91 -88
91 -4 0 -23 4 -42 8 -19 5 -50 5 -68 1z"/>
<path d="M27795 28341 c-6 -11 9 -23 19 -14 9 9 7 23 -3 23 -6 0 -12 -4 -16
-9z"/>
<path d="M24798 28237 c-112 -32 -188 -132 -188 -250 0 -79 19 -127 75 -184
51 -52 120 -83 185 -83 136 0 260 127 260 265 0 166 -172 296 -332 252z"/>
<path d="M12254 28168 c-8 -13 6 -28 21 -22 22 9 25 30 3 30 -11 0 -22 -4 -24
-8z"/>
<path d="M26957 28162 c-10 -10 -17 -28 -17 -40 0 -28 34 -62 60 -62 25 0 60
34 60 58 0 53 -68 82 -103 44z"/>
<path d="M13203 28069 c-23 -8 -63 -64 -63 -87 0 -19 41 -31 67 -19 21 9 53
62 53 86 0 17 -33 29 -57 20z"/>
<path d="M28315 28040 c3 -5 8 -10 11 -10 2 0 4 5 4 10 0 6 -5 10 -11 10 -5 0
-7 -4 -4 -10z"/>
<path d="M12481 28024 c0 -11 3 -14 6 -6 3 7 2 16 -1 19 -3 4 -6 -2 -5 -13z"/>
<path d="M26134 28031 c-30 -13 -71 -66 -79 -101 -9 -41 9 -91 46 -126 26 -25
38 -29 89 -29 51 0 63 4 90 30 61 59 62 141 0 200 -31 30 -105 43 -146 26z"/>
<path d="M13267 27913 c-13 -12 -7 -63 7 -63 24 0 60 36 53 53 -6 17 -47 23
-60 10z"/>
<path d="M25285 27901 c-122 -57 -170 -201 -107 -321 40 -76 95 -113 178 -118
79 -5 137 14 186 62 98 95 96 238 -4 333 -66 63 -172 82 -253 44z"/>
<path d="M13346 27843 c-49 -71 -25 -96 46 -46 31 21 38 32 36 52 -2 20 -9 27
-30 29 -21 3 -32 -4 -52 -35z"/>
<path d="M27484 27846 c-11 -28 1 -51 25 -51 32 0 49 28 32 49 -17 20 -50 21
-57 2z"/>
<path d="M12476 27815 c-49 -45 -61 -114 -24 -139 12 -9 41 -16 64 -16 34 0
47 5 63 26 25 32 26 52 6 101 -25 60 -64 70 -109 28z"/>
<path d="M13994 27805 c-10 -40 12 -56 37 -26 23 29 20 45 -9 49 -16 3 -23 -3
-28 -23z"/>
<path d="M12250 27775 c-28 -34 42 -155 112 -191 46 -24 56 -7 34 61 -33 106
-110 174 -146 130z"/>
<path d="M26952 27777 c-38 -45 -10 -107 40 -88 45 17 44 66 -2 91 -24 13 -25
13 -38 -3z"/>
<path d="M13760 27707 c-54 -28 -26 -97 40 -99 41 -1 62 25 58 72 -3 32 -6 35
-38 38 -19 1 -46 -4 -60 -11z"/>
<path d="M13504 27695 c-7 -17 12 -45 31 -45 18 0 48 37 40 49 -10 17 -65 13
-71 -4z"/>
<path d="M26636 27669 c-46 -54 -27 -127 38 -149 44 -14 80 0 106 42 40 64 -3
138 -80 138 -30 0 -43 -6 -64 -31z"/>
<path d="M13933 27660 c-48 -19 -60 -94 -17 -110 38 -15 51 -12 74 12 33 36
36 65 9 88 -27 22 -34 23 -66 10z"/>
<path d="M25860 27570 c-107 -19 -172 -126 -141 -231 49 -163 274 -177 343
-21 60 136 -54 279 -202 252z"/>
<path d="M13423 27563 c-14 -5 -18 -43 -5 -43 4 0 18 7 30 16 33 23 14 43 -25
27z"/>
<path d="M12791 27525 c-79 -21 -101 -23 -131 -14 -30 9 -43 8 -68 -5 -17 -9
-40 -16 -51 -16 -21 0 -41 -27 -41 -55 0 -11 5 -15 15 -11 11 4 15 -1 15 -19
0 -14 9 -34 20 -45 17 -17 19 -24 9 -43 -7 -12 -18 -26 -25 -30 -32 -19 3 -67
49 -67 38 0 60 27 53 63 -3 17 -4 28 0 25 10 -10 78 13 102 35 12 11 22 27 22
35 0 8 6 12 13 10 6 -3 49 -18 93 -34 l81 -28 42 19 c52 23 101 77 101 111 0
93 -109 118 -299 69z"/>
<path d="M14185 27530 c-3 -5 -1 -10 4 -10 6 0 11 5 11 10 0 6 -2 10 -4 10 -3
0 -8 -4 -11 -10z"/>
<path d="M28012 27529 c2 -6 8 -10 13 -10 5 0 11 4 13 10 2 6 -4 11 -13 11 -9
0 -15 -5 -13 -11z"/>
<path d="M13153 27469 c-44 -22 -51 -36 -33 -69 8 -16 6 -22 -15 -36 -60 -39
-4 -64 149 -65 82 -1 103 2 143 22 56 29 79 70 60 110 -10 20 -21 25 -60 27
-41 3 -113 -12 -172 -34 -13 -5 -14 -2 -5 21 19 49 -2 57 -67 24z"/>
<path d="M27172 27358 c-22 -28 -22 -55 -1 -81 25 -33 58 -34 87 -4 26 28 27
45 6 75 -17 25 -74 31 -92 10z"/>
<path d="M13460 27229 c-58 -23 -43 -52 38 -75 31 -9 63 -26 72 -37 36 -44 84
12 58 68 -22 48 -103 70 -168 44z"/>
<path d="M26355 27226 c-99 -46 -120 -165 -40 -235 45 -39 89 -47 143 -26 77
31 111 116 77 189 -33 69 -116 102 -180 72z"/>
<path d="M13000 27160 c-92 -14 -109 -60 -45 -124 62 -63 154 -86 188 -48 24
27 24 133 0 154 -24 21 -76 27 -143 18z"/>
<path d="M26943 27163 c-18 -7 -16 -42 2 -49 20 -8 45 13 45 37 0 19 -20 24
-47 12z"/>
<path d="M13858 27144 c-5 -4 -8 -16 -8 -28 0 -14 3 -17 11 -9 6 6 9 19 7 28
-1 9 -6 13 -10 9z"/>
<path d="M13280 27125 c0 -9 5 -15 11 -13 6 2 11 8 11 13 0 5 -5 11 -11 13 -6
2 -11 -4 -11 -13z"/>
<path d="M12648 27122 c-22 -4 -24 -45 -3 -62 12 -10 20 -9 41 4 14 10 24 24
22 33 -3 18 -35 31 -60 25z"/>
<path d="M25545 27121 c-108 -27 -195 -134 -195 -240 0 -143 133 -264 271
-248 208 25 297 270 150 417 -66 66 -145 90 -226 71z"/>
<path d="M12536 27078 c-30 -42 -9 -118 32 -118 9 0 30 11 46 23 29 24 29 24
15 70 -12 43 -16 47 -46 47 -22 0 -37 -7 -47 -22z"/>
<path d="M12780 27093 c-38 -7 -44 -19 -21 -42 36 -36 88 -18 79 26 -3 19 -18
23 -58 16z"/>
<path d="M26707 27004 c-109 -114 -116 -125 -117 -185 0 -32 -7 -55 -22 -74
-30 -38 -35 -111 -10 -151 22 -35 76 -64 119 -64 64 0 124 31 196 101 38 38
77 71 88 74 10 3 28 18 40 33 19 24 20 35 14 102 -13 145 -91 260 -176 260
-38 0 -46 -5 -132 -96z"/>
<path d="M27701 27032 c-15 -28 8 -57 38 -47 17 5 21 13 19 33 -4 34 -42 43
-57 14z"/>
<path d="M13140 26865 c-11 -14 -10 -20 12 -42 14 -14 30 -23 36 -19 14 8 4
41 -18 61 -16 14 -18 14 -30 0z"/>
<path d="M12217 26820 c-6 -16 -17 -30 -24 -30 -7 0 -13 -5 -13 -11 0 -6 7 -9
15 -5 9 3 15 0 15 -10 0 -23 27 -28 55 -10 30 20 32 49 5 76 -27 27 -40 25
-53 -10z"/>
<path d="M13022 26817 c-10 -11 -9 -17 3 -27 24 -20 45 4 24 26 -14 13 -17 13
-27 1z"/>
<path d="M26025 26771 c-74 -33 -125 -113 -125 -197 0 -17 12 -55 28 -85 92
-182 364 -135 388 67 19 161 -144 282 -291 215z"/>
<path d="M27399 26723 c-14 -16 -48 -59 -75 -98 -27 -38 -78 -106 -113 -149
l-65 -80 60 43 c32 24 112 78 176 122 149 100 170 127 128 169 -30 30 -80 26
-111 -7z"/>
<path d="M28230 26720 c0 -5 5 -10 10 -10 6 0 10 5 10 10 0 6 -4 10 -10 10 -5
0 -10 -4 -10 -10z"/>
<path d="M28114 26669 c-8 -14 11 -33 25 -25 6 4 11 11 11 16 0 13 -29 20 -36
9z"/>
<path d="M29057 26656 c-15 -38 28 -70 51 -39 7 10 11 24 10 33 -4 21 -54 25
-61 6z"/>
<path d="M27392 26554 c-28 -19 -30 -74 -4 -97 27 -25 78 -22 96 5 23 33 19
64 -10 87 -32 25 -52 26 -82 5z"/>
<path d="M12006 26481 c-10 -11 -15 -24 -12 -30 10 -16 56 9 56 31 0 24 -22
23 -44 -1z"/>
<path d="M29299 26451 c-32 -32 -39 -46 -39 -77 0 -22 9 -53 20 -71 52 -86
150 -63 166 39 22 130 -64 193 -147 109z"/>
<path d="M12366 26431 c-15 -16 -15 -29 -6 -112 6 -51 18 -104 26 -117 31 -47
109 -56 156 -17 16 14 36 25 43 25 34 0 63 98 34 116 -6 3 -9 18 -6 32 10 52
-64 92 -174 92 -42 0 -60 -5 -73 -19z"/>
<path d="M26555 26436 c-130 -56 -123 -251 10 -301 45 -18 54 -28 35 -40 -19
-12 -10 -35 13 -35 28 0 62 33 54 54 -4 9 3 16 17 20 35 9 94 79 102 121 24
129 -110 234 -231 181z"/>
<path d="M28835 26356 c-29 -29 -42 -73 -28 -95 17 -28 61 -37 91 -20 23 13
27 22 26 57 -1 43 -25 82 -51 82 -8 0 -25 -11 -38 -24z"/>
<path d="M12030 26331 c-7 -13 -7 -28 0 -46 8 -21 7 -27 -8 -31 -80 -26 -114
-58 -133 -127 -9 -31 -9 -56 -1 -95 21 -99 75 -143 177 -144 83 -1 141 41 170
121 34 97 4 188 -76 231 -26 14 -47 28 -48 33 0 4 -1 16 -1 26 0 45 -60 68
-80 32z"/>
<path d="M27121 26266 c-15 -18 -4 -46 19 -46 10 0 24 7 31 16 11 14 10 18 -6
30 -24 17 -30 17 -44 0z"/>
<path d="M27925 26236 c-20 -15 -17 -44 7 -59 12 -8 21 -7 32 2 36 30 -1 85
-39 57z"/>
<path d="M27365 26180 c-8 -14 13 -50 30 -50 21 0 27 17 15 40 -11 21 -35 27
-45 10z"/>
<path d="M27095 26096 c-16 -7 -38 -22 -48 -33 -19 -22 -43 -132 -30 -143 4
-4 31 -16 60 -28 65 -28 103 -21 143 25 55 62 32 154 -47 184 -31 12 -42 11
-78 -5z"/>
<path d="M26495 26060 c-4 -6 -1 -17 5 -25 9 -11 17 -12 32 -4 15 8 17 13 7
25 -14 16 -35 18 -44 4z"/>
<path d="M31786 25968 c-21 -29 -20 -35 3 -48 31 -16 53 -2 49 34 -4 38 -30
46 -52 14z"/>
<path d="M28445 25920 c-11 -17 5 -32 21 -19 7 6 11 15 8 20 -7 12 -21 11 -29
-1z"/>
<path d="M11870 25820 c-25 -25 -25 -37 0 -50 17 -9 24 -6 45 16 14 15 25 33
25 40 0 21 -47 17 -70 -6z"/>
<path d="M32056 25791 c-7 -11 3 -91 15 -111 5 -10 9 7 9 47 0 57 -11 86 -24
64z"/>
<path d="M27609 25760 c-29 -17 -43 -65 -27 -97 40 -85 174 -29 138 58 -19 45
-70 63 -111 39z"/>
<path d="M28594 25746 c-10 -25 0 -69 19 -80 43 -27 78 48 35 78 -28 20 -47
20 -54 2z"/>
<path d="M27374 25716 c-39 -17 -72 -59 -80 -101 -12 -68 54 -145 125 -145 78
0 161 71 161 138 0 52 -21 77 -85 101 -65 24 -79 25 -121 7z"/>
<path d="M11511 25659 c-48 -71 -50 -85 -16 -101 19 -9 29 -8 49 6 44 28 58
59 51 110 -10 65 -33 61 -84 -15z"/>
<path d="M28312 25678 c-24 -30 -14 -101 15 -112 21 -9 67 24 71 51 4 25 -34
73 -58 73 -9 0 -22 -6 -28 -12z"/>
<path d="M26764 25641 c-23 -10 -54 -36 -70 -57 -25 -32 -29 -46 -29 -98 1
-125 32 -194 81 -182 11 3 37 1 57 -5 43 -12 106 2 150 33 78 55 90 195 24
266 -56 60 -139 77 -213 43z"/>
<path d="M11295 25590 c-17 -19 -17 -21 0 -40 10 -11 23 -20 30 -20 17 0 55
44 55 63 0 25 -62 23 -85 -3z"/>
<path d="M28886 25481 c-62 -90 -81 -199 -48 -274 26 -59 66 -81 136 -74 42 4
55 10 78 37 50 61 47 173 -8 267 -26 45 -49 62 -101 73 -29 7 -34 4 -57 -29z"/>
<path d="M28130 25430 c-24 -24 -24 -29 -4 -58 17 -24 53 -29 72 -10 19 19 14
55 -10 72 -29 20 -34 20 -58 -4z"/>
<path d="M11565 25395 c-28 -27 -29 -33 -14 -72 29 -77 99 -106 138 -57 42 53
17 126 -48 144 -49 13 -48 13 -76 -15z"/>
<path d="M29195 25399 c-18 -19 -18 -21 -1 -54 40 -73 155 -47 126 29 -18 48
-92 63 -125 25z"/>
<path d="M27305 25306 c-101 -46 -113 -181 -21 -241 52 -34 147 -13 182 40 70
107 -47 254 -161 201z"/>
<path d="M34000 25255 c0 -15 26 -20 54 -9 28 11 17 24 -19 24 -24 0 -35 -5
-35 -15z"/>
<path d="M29907 25228 c-20 -16 -38 -61 -29 -75 9 -13 68 -33 97 -33 29 0 36
28 20 68 -12 28 -41 52 -62 52 -5 0 -17 -6 -26 -12z"/>
<path d="M28656 25127 c-26 -19 -17 -51 17 -55 31 -4 47 20 30 46 -13 22 -26
24 -47 9z"/>
<path d="M31823 25104 c-23 -36 -22 -97 2 -124 66 -73 165 -55 165 28 0 94
-122 164 -167 96z"/>
<path d="M29183 25095 c-29 -21 -29 -56 0 -83 34 -32 62 -28 77 9 27 65 -23
112 -77 74z"/>
<path d="M32289 25071 c-50 -50 -32 -121 36 -140 63 -17 94 19 82 97 -7 40
-37 72 -69 72 -11 0 -33 -13 -49 -29z"/>
<path d="M29990 25019 c0 -5 5 -7 10 -4 6 3 10 8 10 11 0 2 -4 4 -10 4 -5 0
-10 -5 -10 -11z"/>
<path d="M11135 25008 c-47 -17 -95 -57 -112 -93 -22 -46 -5 -85 60 -136 67
-54 94 -59 123 -25 25 29 64 142 64 186 0 60 -67 93 -135 68z"/>
<path d="M27824 24974 c-77 -38 -75 -142 3 -179 28 -13 40 -14 69 -5 37 12 74
59 74 93 0 34 -31 79 -65 93 -42 17 -43 17 -81 -2z"/>
<path d="M29100 24941 c-15 -30 -12 -53 14 -85 23 -28 24 -28 50 -11 34 23 43
58 22 90 -21 31 -70 35 -86 6z"/>
<path d="M26969 24840 c-158 -83 -130 -313 43 -361 144 -39 281 116 227 258
-14 38 -67 92 -106 109 -45 20 -121 17 -164 -6z"/>
<path d="M29173 24833 c-7 -2 -13 -11 -13 -19 0 -12 -4 -12 -20 -4 -26 14 -57
4 -71 -22 -24 -44 21 -170 84 -235 38 -40 64 -42 78 -5 16 40 5 145 -19 186
-18 31 -19 35 -4 50 25 25 -2 63 -35 49z"/>
<path d="M33260 24820 c-23 -23 -17 -48 16 -56 30 -8 44 2 44 31 0 36 -34 51
-60 25z"/>
<path d="M30906 24793 c-3 -3 -3 -10 0 -14 7 -12 34 -11 34 0 0 11 -26 22 -34
14z"/>
<path d="M28282 24759 c2 -6 8 -10 13 -10 5 0 11 4 13 10 2 6 -4 11 -13 11 -9
0 -15 -5 -13 -11z"/>
<path d="M28186 24719 c-39 -31 -33 -73 11 -77 18 -2 41 2 53 8 27 14 26 55
-2 74 -29 20 -30 20 -62 -5z"/>
<path d="M30505 24730 c-3 -5 -1 -10 4 -10 6 0 11 5 11 10 0 6 -2 10 -4 10 -3
0 -8 -4 -11 -10z"/>
<path d="M28919 24669 c-14 -28 3 -49 28 -33 25 16 27 31 4 43 -17 9 -22 8
-32 -10z"/>
<path d="M28345 24658 c-31 -16 -45 -39 -45 -70 0 -39 40 -78 80 -78 36 0 80
38 80 69 0 33 -21 68 -47 80 -30 14 -42 13 -68 -1z"/>
<path d="M29391 24626 c-14 -16 -4 -43 23 -66 33 -26 64 38 34 68 -16 16 -43
15 -57 -2z"/>
<path d="M8140 24620 c0 -5 5 -10 10 -10 6 0 10 5 10 10 0 6 -4 10 -10 10 -5
0 -10 -4 -10 -10z"/>
<path d="M29772 24614 c-15 -10 -22 -25 -22 -49 0 -38 24 -60 76 -71 26 -5 31
-1 44 28 18 42 15 57 -16 86 -30 26 -51 28 -82 6z"/>
<path d="M31486 24594 c-8 -21 -1 -28 19 -20 9 3 15 11 13 18 -7 19 -25 20
-32 2z"/>
<path d="M9910 24568 c-123 -64 -116 -245 12 -307 24 -11 53 -21 64 -21 43 0
98 23 135 57 71 64 77 151 13 217 -71 73 -150 92 -224 54z"/>
<path d="M27500 24518 c-24 -13 -52 -35 -63 -49 -45 -62 -38 -153 16 -209 38
-39 65 -50 119 -50 177 0 226 237 64 311 -54 24 -83 24 -136 -3z"/>
<path d="M29674 24526 c-10 -26 4 -48 28 -44 17 2 23 10 23 28 0 18 -6 26 -23
28 -13 2 -25 -3 -28 -12z"/>
<path d="M33160 24469 c0 -5 5 -7 10 -4 6 3 10 8 10 11 0 2 -4 4 -10 4 -5 0
-10 -5 -10 -11z"/>
<path d="M11914 24455 c-12 -9 -31 -12 -50 -9 -71 13 -101 -50 -49 -102 29
-29 48 -26 111 17 63 43 69 54 50 84 -19 29 -34 31 -62 10z"/>
<path d="M30456 24435 c-8 -21 30 -57 57 -53 34 5 35 45 2 58 -37 14 -52 13
-59 -5z"/>
<path d="M29362 24425 c-58 -25 -65 -92 -16 -167 48 -75 161 -74 211 1 13 19
23 46 23 62 0 42 -44 86 -103 104 -61 18 -73 18 -115 0z"/>
<path d="M31795 24379 c-10 -15 1 -23 20 -15 9 3 13 10 10 16 -8 13 -22 13
-30 -1z"/>
<path d="M28863 24360 c-46 -19 -57 -83 -20 -118 43 -40 109 -19 122 39 12 48
-53 98 -102 79z"/>
<path d="M27023 24323 c-14 -5 -17 -41 -7 -67 7 -18 69 -22 79 -6 15 24 -45
83 -72 73z"/>
<path d="M8687 24314 c-8 -8 1 -24 14 -24 5 0 9 7 9 15 0 15 -12 20 -23 9z"/>
<path d="M10920 24235 c0 -8 5 -15 10 -15 6 0 10 7 10 15 0 8 -4 15 -10 15 -5
0 -10 -7 -10 -15z"/>
<path d="M30184 24236 c-12 -31 0 -51 31 -51 27 0 30 3 30 30 0 25 -4 30 -28
33 -17 2 -29 -2 -33 -12z"/>
<path d="M11001 24203 c-10 -23 -9 -29 8 -46 24 -25 51 -16 51 17 0 59 -37 77
-59 29z"/>
<path d="M28024 24206 c-94 -41 -111 -179 -30 -241 76 -58 175 -34 216 51 59
120 -63 243 -186 190z"/>
<path d="M32230 24200 c-25 -25 -37 -70 -20 -80 33 -20 98 36 80 70 -15 28
-38 32 -60 10z"/>
<path d="M10892 24143 c-8 -14 -9 -24 -2 -28 12 -7 24 18 18 37 -3 8 -9 5 -16
-9z"/>
<path d="M29882 24148 c-16 -16 -15 -38 3 -79 25 -57 42 -72 80 -72 42 0 75
27 75 61 0 39 -69 102 -112 102 -19 0 -39 -5 -46 -12z"/>
<path d="M11515 24139 c-10 -15 3 -25 16 -12 7 7 7 13 1 17 -6 3 -14 1 -17 -5z"/>
<path d="M28865 24114 c-11 -11 -15 -30 -13 -58 3 -35 6 -41 28 -44 28 -3 63
27 74 64 14 45 -54 73 -89 38z"/>
<path d="M7814 24079 c-8 -14 11 -33 25 -25 6 4 11 14 11 22 0 16 -26 19 -36
3z"/>
<path d="M29374 24070 c-53 -21 -92 -113 -73 -169 20 -58 88 -75 186 -46 130
39 154 174 35 204 -60 15 -125 20 -148 11z"/>
<path d="M10764 24035 c-20 -30 -22 -88 -5 -109 31 -37 134 -2 147 50 6 23 1
32 -25 56 -42 37 -94 39 -117 3z"/>
<path d="M29751 24041 c-22 -14 -8 -46 22 -49 22 -3 27 1 27 17 0 24 -30 43
-49 32z"/>
<path d="M28505 24020 c3 -5 8 -10 11 -10 2 0 4 5 4 10 0 6 -5 10 -11 10 -5 0
-7 -4 -4 -10z"/>
<path d="M9235 23991 c-6 -11 9 -23 19 -14 9 9 7 23 -3 23 -6 0 -12 -4 -16 -9z"/>
<path d="M32860 23946 c0 -20 5 -26 21 -26 15 0 20 5 17 22 -5 34 -38 37 -38
4z"/>
<path d="M30695 23930 c-8 -27 12 -52 39 -48 16 2 21 10 21 33 0 25 -4 31 -27
33 -19 2 -28 -2 -33 -18z"/>
<path d="M28540 23902 c-93 -47 -106 -166 -24 -231 41 -32 86 -36 136 -12 53
25 78 65 78 124 0 53 -34 101 -87 123 -43 18 -61 18 -103 -4z"/>
<path d="M10735 23900 c3 -5 8 -10 11 -10 2 0 4 5 4 10 0 6 -5 10 -11 10 -5 0
-7 -4 -4 -10z"/>
<path d="M33405 23820 c-12 -4 -27 -15 -34 -24 -19 -22 10 -66 44 -66 43 0 76
80 39 94 -19 7 -23 7 -49 -4z"/>
<path d="M8383 23784 c-18 -8 -33 -19 -33 -24 0 -5 -16 -32 -36 -59 -19 -28
-36 -63 -37 -78 -2 -24 2 -28 25 -31 54 -6 171 75 181 125 5 28 -7 62 -27 75
-16 11 -36 8 -73 -8z"/>
<path d="M29860 23755 c-49 -52 -12 -135 60 -135 48 0 80 33 80 81 0 73 -90
107 -140 54z"/>
<path d="M10732 23740 c-21 -13 -40 -36 -50 -62 -15 -37 -17 -39 -22 -18 -3
13 -17 31 -30 42 -21 15 -31 16 -63 7 -40 -11 -47 -21 -68 -102 -7 -28 -8 -52
-3 -57 5 -4 32 -11 61 -15 48 -6 54 -5 78 21 l25 27 0 -30 c0 -46 28 -128 50
-148 12 -11 20 -31 20 -51 0 -46 8 -63 41 -79 41 -21 66 -18 96 11 22 22 25
31 20 68 -6 39 -4 44 19 54 29 14 44 49 44 104 0 53 -35 127 -66 138 -14 6
-26 21 -30 37 -17 74 -58 92 -122 53z"/>
<path d="M30327 23753 c-3 -5 -5 -20 -5 -35 0 -20 7 -28 25 -33 31 -7 43 1 43
30 0 31 -50 60 -63 38z"/>
<path d="M27705 23733 c-68 -36 -105 -95 -105 -168 0 -60 19 -103 63 -142 110
-96 270 -46 308 97 21 82 -29 184 -108 216 -43 18 -121 17 -158 -3z"/>
<path d="M31845 23715 c-27 -26 -31 -49 -15 -89 7 -19 17 -26 35 -26 31 0 75
41 75 70 0 22 -41 70 -60 70 -6 0 -22 -11 -35 -25z"/>
<path d="M11126 23715 c-10 -26 4 -65 24 -65 46 0 55 73 9 78 -17 2 -29 -3
-33 -13z"/>
<path d="M32701 23704 c-31 -39 -28 -66 6 -62 33 4 57 43 42 70 -13 25 -24 23
-48 -8z"/>
<path d="M27552 23670 c-44 -32 -62 -57 -62 -88 0 -52 55 -26 101 46 49 77 33
94 -39 42z"/>
<path d="M31699 23677 c-35 -24 -52 -67 -26 -67 17 0 107 67 107 80 0 18 -47
10 -81 -13z"/>
<path d="M31216 23642 c-9 -15 4 -126 20 -170 9 -23 24 -47 34 -52 58 -31 117
71 84 148 -12 30 -56 58 -74 47 -4 -3 -10 4 -13 15 -5 20 -41 28 -51 12z"/>
<path d="M11611 23626 c-15 -18 -3 -46 19 -46 20 0 36 33 25 50 -9 14 -31 12
-44 -4z"/>
<path d="M6583 23609 c-29 -18 -43 -39 -28 -39 21 0 75 32 75 44 0 21 -8 20
-47 -5z"/>
<path d="M29055 23616 c-96 -44 -116 -159 -41 -235 34 -33 41 -36 96 -36 55 0
62 3 96 37 32 31 38 44 41 90 5 59 -16 104 -61 133 -35 23 -95 28 -131 11z"/>
<path d="M11184 23595 c-14 -35 22 -47 50 -16 15 17 15 19 1 25 -27 10 -45 7
-51 -9z"/>
<path d="M31576 23569 c-28 -33 -36 -95 -14 -117 17 -17 69 -15 96 4 32 22 43
57 31 94 -20 57 -74 66 -113 19z"/>
<path d="M32467 23583 c-8 -10 -19 -36 -22 -58 l-8 -40 30 28 c16 15 34 27 41
27 16 0 16 32 0 48 -16 16 -22 15 -41 -5z"/>
<path d="M7501 23537 c-14 -17 3 -41 23 -34 9 4 16 13 16 21 0 19 -26 28 -39
13z"/>
<path d="M29978 23528 c-29 -24 -29 -57 2 -91 26 -29 30 -31 53 -18 32 17 36
28 26 67 -5 18 -19 35 -34 42 -32 15 -28 15 -47 0z"/>
<path d="M32765 23506 c-14 -14 -37 -29 -51 -32 -39 -10 -50 -41 -26 -73 31
-42 69 -36 108 20 41 59 44 77 17 96 -20 14 -24 13 -48 -11z"/>
<path d="M28016 23511 c-4 -5 -2 -12 3 -15 5 -4 12 -2 15 3 4 5 2 12 -3 15 -5
4 -12 2 -15 -3z"/>
<path d="M30392 23473 c-19 -8 -40 -55 -36 -83 9 -60 95 -82 133 -34 28 35 26
69 -4 99 -23 24 -61 31 -93 18z"/>
<path d="M8909 23454 c-18 -22 13 -53 35 -35 8 7 12 19 10 26 -8 21 -31 25
-45 9z"/>
<path d="M28235 23445 c-22 -8 -55 -30 -73 -50 -23 -25 -41 -35 -63 -35 -25 0
-32 -6 -45 -35 -7 -19 -14 -43 -14 -53 0 -11 -6 -25 -14 -32 -10 -8 -12 -18
-7 -33 6 -15 3 -34 -10 -59 -24 -48 -24 -83 1 -108 43 -43 122 -34 183 20 29
25 38 28 70 20 83 -18 174 29 209 108 43 97 5 200 -92 250 -51 25 -88 27 -145
7z"/>
<path d="M9082 23438 c-19 -19 -14 -46 9 -53 25 -8 36 1 41 35 2 19 -2 26 -17
28 -11 1 -26 -3 -33 -10z"/>
<path d="M9499 23414 c-9 -11 -9 -18 -1 -26 14 -14 42 -3 42 16 0 20 -27 27
-41 10z"/>
<path d="M31974 23410 c-28 -11 -74 -67 -74 -90 0 -28 56 -70 95 -70 48 0 76
27 82 81 7 62 -8 89 -50 88 -18 0 -41 -4 -53 -9z"/>
<path d="M10335 23359 c-10 -15 3 -25 16 -12 7 7 7 13 1 17 -6 3 -14 1 -17 -5z"/>
<path d="M31456 23341 c-4 -5 -2 -12 3 -15 5 -4 12 -2 15 3 4 5 2 12 -3 15 -5
4 -12 2 -15 -3z"/>
<path d="M31733 23334 c-3 -8 -1 -20 5 -26 15 -15 43 8 35 28 -7 19 -32 18
-40 -2z"/>
<path d="M29560 23311 c-73 -39 -97 -110 -61 -183 25 -52 65 -78 121 -78 84 0
140 56 140 142 0 54 -33 102 -87 124 -44 19 -72 18 -113 -5z"/>
<path d="M29194 23259 c-3 -6 0 -17 8 -25 13 -13 16 -13 27 0 7 8 10 20 6 26
-8 13 -32 13 -41 -1z"/>
<path d="M6931 23241 c-36 -9 -47 -33 -35 -78 9 -40 13 -41 90 -34 14 1 27 62
19 83 -8 21 -46 36 -74 29z"/>
<path d="M31115 23239 c-10 -15 3 -25 16 -12 7 7 7 13 1 17 -6 3 -14 1 -17 -5z"/>
<path d="M8041 23223 c-12 -24 1 -46 25 -41 13 2 19 12 19 28 0 30 -30 39 -44
13z"/>
<path d="M30365 23206 c-33 -50 22 -89 64 -47 24 24 17 57 -12 65 -33 9 -35 8
-52 -18z"/>
<path d="M8915 23200 c-12 -4 -27 -15 -34 -24 -11 -13 -16 -14 -22 -5 -4 7
-14 9 -23 6 -21 -8 -22 -57 -1 -57 8 0 17 -11 21 -25 11 -45 72 -59 139 -31
63 27 69 74 14 121 -31 26 -58 30 -94 15z"/>
<path d="M30901 23143 c-34 -43 -10 -93 44 -93 34 0 48 11 59 47 5 17 1 29
-18 48 -32 32 -59 32 -85 -2z"/>
<path d="M28735 23144 c-67 -35 -114 -106 -115 -172 0 -39 24 -99 51 -128 l20
-22 -36 -6 c-50 -10 -111 -68 -132 -126 -15 -42 -21 -48 -58 -58 -79 -21 -146
-127 -130 -205 22 -104 128 -173 223 -148 75 21 142 98 142 165 0 19 10 29 47
47 59 30 103 84 110 137 7 53 -1 84 -33 121 l-26 31 28 0 c41 0 111 37 139 74
72 94 37 239 -69 287 -50 23 -121 24 -161 3z"/>
<path d="M10953 23124 c-15 -24 -15 -28 0 -52 22 -38 38 -45 70 -33 23 9 27
16 27 50 0 30 -5 43 -19 51 -33 17 -60 11 -78 -16z"/>
<path d="M9465 23131 c-7 -12 12 -24 25 -16 11 7 4 25 -10 25 -5 0 -11 -4 -15
-9z"/>
<path d="M10870 23056 c-18 -22 -5 -48 22 -44 17 2 23 10 23 28 0 29 -26 38
-45 16z"/>
<path d="M32255 23040 c-4 -6 -3 -16 3 -22 6 -6 12 -6 17 2 4 6 3 16 -3 22 -6
6 -12 6 -17 -2z"/>
<path d="M30081 22997 c-84 -43 -84 -169 0 -213 38 -19 78 -18 116 6 39 24 54
50 55 99 0 48 -15 77 -55 101 -37 23 -81 25 -116 7z"/>
<path d="M7190 22975 c0 -8 5 -15 10 -15 6 0 10 7 10 15 0 8 -4 15 -10 15 -5
0 -10 -7 -10 -15z"/>
<path d="M31157 22972 c-19 -20 -23 -52 -7 -52 15 0 50 38 50 55 0 21 -23 19
-43 -3z"/>
<path d="M27950 22939 c-109 -33 -161 -139 -126 -259 9 -30 24 -60 34 -65 111
-61 158 -68 229 -34 115 56 145 200 61 295 -53 60 -127 84 -198 63z"/>
<path d="M8589 22904 c-5 -6 -9 -16 -8 -20 1 -5 -3 -22 -9 -37 -15 -36 -15
-42 3 -77 18 -36 96 -78 160 -86 28 -4 52 -15 66 -30 48 -51 72 -16 71 102 -1
97 -14 125 -73 148 -48 20 -194 20 -210 0z"/>
<path d="M29395 22901 c-6 -11 9 -23 19 -14 9 9 7 23 -3 23 -6 0 -12 -4 -16
-9z"/>
<path d="M29447 22846 c-3 -8 1 -22 8 -33 13 -17 15 -17 31 -1 9 9 14 24 11
32 -8 20 -43 21 -50 2z"/>
<path d="M31442 22853 c-41 -16 -32 -83 11 -83 44 0 62 43 31 74 -16 17 -21
18 -42 9z"/>
<path d="M29273 22839 c-45 -13 -100 -71 -113 -119 -43 -161 143 -282 274
-179 98 77 77 238 -38 290 -45 20 -74 22 -123 8z"/>
<path d="M10004 22819 c-10 -17 23 -46 37 -32 7 7 9 19 6 27 -7 18 -33 21 -43
5z"/>
<path d="M32097 22812 c-9 -10 -18 -29 -19 -43 -2 -18 2 -25 20 -27 44 -7 79
47 50 76 -17 17 -32 15 -51 -6z"/>
<path d="M9014 22800 c-38 -15 -48 -39 -51 -123 -2 -84 9 -119 50 -164 59 -65
115 30 98 167 -12 95 -47 138 -97 120z"/>
<path d="M32765 22741 c-7 -12 12 -24 25 -16 11 7 4 25 -10 25 -5 0 -11 -4
-15 -9z"/>
<path d="M30845 22708 c-16 -12 -42 -29 -59 -38 -28 -14 -31 -19 -31 -63 0
-65 5 -72 47 -58 50 16 105 66 118 107 10 30 9 38 -6 55 -22 25 -35 24 -69 -3z"/>
<path d="M27616 22682 c-15 -24 71 -43 103 -23 18 12 3 20 -52 27 -27 4 -47 2
-51 -4z"/>
<path d="M7730 22660 c0 -15 5 -20 18 -18 9 2 17 10 17 18 0 8 -8 16 -17 18
-13 2 -18 -3 -18 -18z"/>
<path d="M30586 22649 c-14 -17 -26 -41 -26 -54 0 -13 12 -37 26 -54 51 -62
146 -26 146 54 0 80 -95 116 -146 54z"/>
<path d="M34095 22650 c3 -5 8 -10 11 -10 2 0 4 5 4 10 0 6 -5 10 -11 10 -5 0
-7 -4 -4 -10z"/>
<path d="M8883 22613 c-19 -7 -15 -31 6 -43 28 -14 31 -13 31 14 0 25 -15 36
-37 29z"/>
<path d="M9134 22585 c-4 -9 -2 -21 4 -27 16 -16 47 -5 47 17 0 26 -42 34 -51
10z"/>
<path d="M10680 22544 c0 -8 5 -12 10 -9 6 4 8 11 5 16 -9 14 -15 11 -15 -7z"/>
<path d="M31630 22540 c0 -5 5 -10 10 -10 6 0 10 5 10 10 0 6 -4 10 -10 10 -5
0 -10 -4 -10 -10z"/>
<path d="M31944 22536 c-11 -28 1 -51 25 -51 32 0 49 28 32 49 -17 20 -50 21
-57 2z"/>
<path d="M10547 22513 c-14 -13 -6 -43 14 -54 28 -15 54 9 44 40 -6 20 -43 29
-58 14z"/>
<path d="M29800 22503 c-8 -3 -26 -14 -40 -23 -14 -9 -40 -20 -59 -24 -46 -8
-65 -24 -50 -42 6 -8 20 -14 31 -14 19 0 22 -4 32 -53 4 -15 19 -41 34 -58 57
-64 174 -44 208 36 18 44 18 69 -2 111 -25 53 -102 86 -154 67z"/>
<path d="M9254 22466 c-16 -42 24 -82 53 -54 14 14 15 22 5 43 -13 27 -49 34
-58 11z"/>
<path d="M10270 22453 c-47 -39 -63 -82 -47 -129 10 -31 20 -41 59 -57 61 -25
69 -18 93 78 17 69 18 79 4 103 -21 39 -67 41 -109 5z"/>
<path d="M33286 22441 c-4 -5 -2 -12 3 -15 5 -4 12 -2 15 3 4 5 2 12 -3 15 -5
4 -12 2 -15 -3z"/>
<path d="M8276 22352 c-9 -14 12 -35 28 -29 23 9 20 37 -3 37 -11 0 -22 -4
-25 -8z"/>
<path d="M31127 22348 c-9 -7 -19 -25 -22 -40 -13 -53 61 -91 98 -50 23 25 21
58 -3 82 -23 23 -49 26 -73 8z"/>
<path d="M30380 22320 c0 -13 7 -20 18 -20 24 0 32 8 25 26 -8 22 -43 17 -43
-6z"/>
<path d="M28975 22300 c-53 -22 -95 -90 -95 -155 0 -44 55 -108 107 -126 90
-29 193 49 193 148 0 41 -40 103 -80 124 -36 20 -91 24 -125 9z"/>
<path d="M9692 22281 c-21 -13 -10 -46 16 -49 27 -4 40 22 22 43 -14 17 -20
18 -38 6z"/>
<path d="M32461 22232 c-8 -15 -7 -23 4 -32 21 -18 47 -4 43 22 -4 29 -34 35
-47 10z"/>
<path d="M28390 22233 c-34 -13 -60 -47 -60 -80 0 -41 15 -73 34 -73 8 0 16
-7 20 -15 9 -25 30 -17 75 29 37 37 43 49 37 71 -13 53 -62 84 -106 68z"/>
<path d="M11088 22218 c-30 -24 -31 -56 -3 -83 27 -28 59 -27 83 3 40 51 -29
120 -80 80z"/>
<path d="M30315 22158 c-32 -19 -44 -40 -45 -79 0 -60 62 -97 125 -73 25 10
47 62 40 94 -11 52 -77 84 -120 58z"/>
<path d="M33800 22140 c0 -5 5 -10 11 -10 5 0 7 5 4 10 -3 6 -8 10 -11 10 -2
0 -4 -4 -4 -10z"/>
<path d="M7425 22110 c3 -5 8 -10 11 -10 2 0 4 5 4 10 0 6 -5 10 -11 10 -5 0
-7 -4 -4 -10z"/>
<path d="M28130 22042 c-51 -51 -61 -101 -31 -157 54 -101 190 -104 242 -5 52
95 -14 200 -126 200 -42 0 -52 -5 -85 -38z"/>
<path d="M8824 22035 c-4 -9 -2 -21 4 -27 15 -15 44 -1 40 19 -4 23 -36 29
-44 8z"/>
<path d="M31646 22034 c-19 -18 -21 -45 -4 -62 39 -39 100 17 63 58 -22 24
-38 25 -59 4z"/>
<path d="M9862 22028 c-7 -7 -12 -20 -12 -30 0 -27 44 -33 95 -13 46 17 58 38
29 49 -27 10 -99 7 -112 -6z"/>
<path d="M28650 21981 c-42 -22 -48 -43 -21 -70 52 -52 171 -31 171 30 0 54
-82 77 -150 40z"/>
<path d="M10232 21968 c-28 -28 -1 -75 37 -63 25 8 34 31 21 56 -12 21 -40 25
-58 7z"/>
<path d="M29218 21964 c-15 -8 -31 -26 -34 -41 -9 -34 16 -53 71 -53 63 0 91
41 65 91 -13 23 -62 25 -102 3z"/>
<path d="M29503 21955 c-93 -40 -72 -175 29 -191 29 -5 41 -1 71 26 48 42 52
94 10 139 -34 36 -68 44 -110 26z"/>
<path d="M32982 21923 c2 -10 10 -18 18 -18 22 0 18 29 -3 33 -14 3 -18 -1
-15 -15z"/>
<path d="M31818 21864 c-46 -24 -63 -79 -33 -104 10 -9 13 -23 10 -49 -5 -29
1 -48 28 -96 43 -76 68 -83 91 -25 12 30 13 46 6 60 -5 10 -10 45 -10 77 0 74
-16 130 -40 143 -23 12 -19 12 -52 -6z"/>
<path d="M9512 21828 c-29 -29 -8 -48 45 -41 35 6 59 26 48 43 -9 14 -78 13
-93 -2z"/>
<path d="M30825 21820 c-23 -25 -13 -67 20 -82 53 -24 100 46 57 85 -25 23
-55 21 -77 -3z"/>
<path d="M8727 21824 c-4 -4 -7 -14 -7 -23 0 -11 3 -12 11 -4 6 6 10 16 7 23
-2 6 -7 8 -11 4z"/>
<path d="M27746 21771 c-3 -5 1 -11 9 -15 9 -3 15 0 15 9 0 16 -16 20 -24 6z"/>
<path d="M28700 21743 c-73 -29 -88 -117 -29 -172 49 -45 149 -10 162 56 6 31
-12 81 -36 101 -18 15 -75 24 -97 15z"/>
<path d="M31550 21740 c0 -5 5 -10 10 -10 6 0 10 5 10 10 0 6 -4 10 -10 10 -5
0 -10 -4 -10 -10z"/>
<path d="M9371 21726 c-17 -20 -2 -48 23 -44 24 3 34 37 14 49 -18 12 -24 11
-37 -5z"/>
<path d="M32161 21726 c-9 -11 -10 -20 -1 -36 13 -24 38 -23 53 1 23 37 -25
68 -52 35z"/>
<path d="M10766 21664 c-36 -35 -12 -94 38 -94 38 0 59 19 59 55 0 14 -6 32
-13 40 -16 20 -64 19 -84 -1z"/>
<path d="M33500 21630 c0 -5 5 -10 10 -10 6 0 10 5 10 10 0 6 -4 10 -10 10 -5
0 -10 -4 -10 -10z"/>
<path d="M30022 21614 c-42 -29 -18 -104 34 -104 26 0 50 20 59 47 4 17 -1 29
-19 48 -29 29 -43 31 -74 9z"/>
<path d="M28940 21558 c-25 -41 -26 -74 -2 -87 26 -14 50 4 58 43 13 74 -21
101 -56 44z"/>
<path d="M27884 21520 c-47 -19 -69 -92 -43 -142 17 -32 74 -51 114 -38 39 13
60 41 67 90 12 78 -57 123 -138 90z"/>
<path d="M31356 21514 c-9 -8 -16 -19 -16 -24 0 -8 28 -40 35 -40 32 0 47 44
23 68 -16 16 -23 15 -42 -4z"/>
<path d="M8515 21481 c-6 -11 9 -23 19 -14 9 9 7 23 -3 23 -6 0 -12 -4 -16 -9z"/>
<path d="M31710 21450 c0 -5 5 -10 10 -10 6 0 10 5 10 10 0 6 -4 10 -10 10 -5
0 -10 -4 -10 -10z"/>
<path d="M9910 21415 c-14 -17 -5 -51 16 -59 22 -8 54 11 54 32 0 38 -46 56
-70 27z"/>
<path d="M32680 21410 c0 -13 7 -20 20 -20 13 0 20 7 20 20 0 13 -7 20 -20 20
-13 0 -20 -7 -20 -20z"/>
<path d="M29222 21410 c-12 -5 -27 -21 -34 -35 -26 -58 70 -115 106 -63 23 33
20 64 -10 87 -30 23 -30 23 -62 11z"/>
<path d="M10712 21324 c-16 -11 -22 -25 -22 -50 0 -31 4 -37 36 -50 19 -8 44
-12 55 -9 33 11 36 75 7 113 -14 17 -49 15 -76 -4z"/>
<path d="M34015 21330 c3 -5 8 -10 11 -10 2 0 4 5 4 10 0 6 -5 10 -11 10 -5 0
-7 -4 -4 -10z"/>
<path d="M30254 21297 c-39 -40 -49 -70 -29 -87 12 -10 19 -9 39 3 26 18 51
79 42 102 -8 21 -17 18 -52 -18z"/>
<path d="M30550 21295 c-19 -23 -8 -50 20 -50 16 0 26 6 28 18 4 18 -14 47
-28 47 -4 0 -13 -7 -20 -15z"/>
<path d="M11104 21265 c-4 -8 -3 -23 0 -32 6 -15 8 -15 23 -1 16 17 12 48 -7
48 -6 0 -13 -7 -16 -15z"/>
<path d="M31877 21214 c-4 -4 -7 -16 -7 -26 0 -14 6 -19 23 -16 14 2 22 10 22
23 0 20 -25 32 -38 19z"/>
<path d="M28402 21184 c-33 -23 -27 -83 10 -103 25 -14 29 -14 55 5 39 29 41
66 7 93 -32 25 -42 26 -72 5z"/>
<path d="M9060 21175 c-15 -18 -5 -35 21 -35 12 0 19 7 19 19 0 24 -25 34 -40
16z"/>
<path d="M10443 21104 c-15 -24 -15 -29 -2 -53 11 -20 22 -26 49 -26 27 0 38
6 49 26 13 24 13 29 -2 53 -12 18 -26 26 -47 26 -21 0 -35 -8 -47 -26z"/>
<path d="M33206 21121 c-4 -5 -2 -12 3 -15 5 -4 12 -2 15 3 4 5 2 12 -3 15 -5
4 -12 2 -15 -3z"/>
<path d="M29742 21078 c-16 -16 -15 -33 4 -48 22 -19 54 12 38 37 -14 22 -27
26 -42 11z"/>
<path d="M31067 20994 c-14 -15 -6 -34 14 -34 14 0 19 5 17 17 -3 18 -20 27
-31 17z"/>
<path d="M32384 20909 c-9 -16 12 -33 31 -25 14 5 15 9 5 21 -15 18 -26 19
-36 4z"/>
<path d="M9605 20864 c-19 -19 -19 -28 0 -44 21 -17 45 -5 45 24 0 29 -24 40
-45 20z"/>
<path d="M28924 20856 c-10 -26 4 -48 28 -44 17 2 23 10 23 28 0 18 -6 26 -23
28 -13 2 -25 -3 -28 -12z"/>
<path d="M31815 20846 c-28 -20 -23 -74 15 -153 30 -66 56 -103 70 -103 8 0
22 91 24 162 1 39 -4 52 -24 72 -33 32 -62 39 -85 22z"/>
<path d="M30262 20761 c2 -7 7 -12 11 -12 12 1 9 15 -3 20 -7 2 -11 -2 -8 -8z"/>
<path d="M31580 20680 c0 -5 7 -10 15 -10 8 0 15 5 15 10 0 6 -7 10 -15 10 -8
0 -15 -4 -15 -10z"/>
<path d="M28213 20657 c-16 -20 -23 -46 -14 -52 10 -5 25 11 34 37 8 21 -7 32
-20 15z"/>
<path d="M28110 20640 c-8 -15 -6 -24 10 -40 22 -22 46 -18 55 11 14 42 -44
68 -65 29z"/>
<path d="M8750 20610 c0 -5 5 -10 10 -10 6 0 10 5 10 10 0 6 -4 10 -10 10 -5
0 -10 -4 -10 -10z"/>
<path d="M32906 20612 c-3 -6 -1 -14 5 -17 15 -10 25 3 12 16 -7 7 -13 7 -17
1z"/>
<path d="M10135 20560 c-28 -31 -10 -74 32 -78 53 -5 77 52 35 86 -23 18 -46
15 -67 -8z"/>
<path d="M29455 20549 c-10 -15 3 -25 16 -12 7 7 7 13 1 17 -6 3 -14 1 -17 -5z"/>
<path d="M8986 20414 c-22 -22 -20 -41 9 -69 44 -45 115 -22 115 37 0 41 -92
65 -124 32z"/>
<path d="M32097 20394 c-8 -8 1 -24 14 -24 5 0 9 7 9 15 0 15 -12 20 -23 9z"/>
<path d="M28642 20329 c2 -6 8 -10 13 -10 5 0 11 4 13 10 2 6 -4 11 -13 11 -9
0 -15 -5 -13 -11z"/>
<path d="M9293 20304 c-8 -21 13 -42 28 -27 13 13 5 43 -11 43 -6 0 -13 -7
-17 -16z"/>
<path d="M10683 20295 c-59 -26 -72 -99 -26 -147 47 -49 123 -35 149 28 20 48
-1 99 -50 119 -41 18 -33 18 -73 0z"/>
<path d="M9050 20176 c0 -8 5 -18 10 -21 13 -8 42 14 34 26 -9 15 -44 10 -44
-5z"/>
<path d="M27835 20120 c-4 -6 -3 -16 3 -22 6 -6 12 -6 17 2 4 6 3 16 -3 22 -6
6 -12 6 -17 -2z"/>
<path d="M10013 20110 c-13 -5 -25 -21 -28 -37 -3 -15 -10 -42 -15 -59 -22
-67 -5 -94 70 -109 19 -4 44 -14 55 -21 35 -23 124 -38 151 -25 31 14 30 28
-3 63 -22 23 -27 36 -24 72 2 39 -1 46 -34 73 -55 46 -123 62 -172 43z"/>
<path d="M32605 20091 c-7 -12 12 -24 25 -16 11 7 4 25 -10 25 -5 0 -11 -4
-15 -9z"/>
<path d="M9822 20008 c-19 -19 -14 -45 10 -62 19 -13 25 -14 43 -2 25 16 31
42 15 61 -15 18 -52 19 -68 3z"/>
<path d="M10385 19889 c-54 -16 -69 -58 -40 -113 14 -26 13 -30 -5 -53 -29
-37 -26 -93 5 -123 54 -50 145 -15 145 56 0 23 9 41 35 67 64 64 36 140 -60
166 -45 12 -40 12 -80 0z"/>
<path d="M31805 19879 c-10 -15 3 -25 16 -12 7 7 7 13 1 17 -6 3 -14 1 -17 -5z"/>
<path d="M28350 19809 c0 -5 5 -7 10 -4 6 3 10 8 10 11 0 2 -4 4 -10 4 -5 0
-10 -5 -10 -11z"/>
<path d="M33125 19800 c-4 -6 -3 -16 3 -22 6 -6 12 -6 17 2 4 6 3 16 -3 22 -6
6 -12 6 -17 -2z"/>
<path d="M8975 19751 c-7 -12 12 -24 25 -16 11 7 4 25 -10 25 -5 0 -11 -4 -15
-9z"/>
<path d="M27912 19728 c6 -18 28 -21 28 -4 0 9 -7 16 -16 16 -9 0 -14 -5 -12
-12z"/>
<path d="M32304 19585 c-4 -9 -2 -21 4 -27 15 -15 44 -1 40 19 -4 23 -36 29
-44 8z"/>
<path d="M33640 19494 c0 -8 5 -12 10 -9 6 4 8 11 5 16 -9 14 -15 11 -15 -7z"/>
<path d="M10577 19493 c-4 -3 -7 -19 -7 -34 0 -37 35 -58 57 -36 12 12 13 19
2 38 -17 34 -38 47 -52 32z"/>
<path d="M10900 19489 c-111 -46 -133 -184 -41 -262 88 -74 225 -19 247 99 8
41 -28 118 -67 147 -32 23 -104 31 -139 16z"/>
<path d="M9504 19456 c-15 -40 21 -80 54 -60 37 24 21 74 -25 74 -13 0 -26 -6
-29 -14z"/>
<path d="M31505 19360 c-3 -5 1 -10 10 -10 9 0 13 5 10 10 -3 6 -8 10 -10 10
-2 0 -7 -4 -10 -10z"/>
<path d="M8655 19210 c-4 -7 -3 -16 3 -22 14 -14 45 -2 40 15 -6 16 -34 21
-43 7z"/>
<path d="M10029 19171 c-17 -18 -29 -40 -29 -56 0 -38 50 -85 90 -85 82 0 112
118 39 155 -42 22 -67 18 -100 -14z"/>
<path d="M10964 18918 c3 -31 9 -44 21 -46 43 -9 43 44 0 72 l-25 16 4 -42z"/>
<path d="M10585 18926 c-52 -23 -85 -71 -85 -124 0 -92 62 -148 152 -140 140
14 171 201 44 262 -41 19 -71 20 -111 2z"/>
<path d="M9198 18919 c-21 -12 -24 -49 -6 -67 39 -39 100 17 63 58 -20 22 -32
24 -57 9z"/>
<path d="M11106 18660 c-84 -42 -122 -110 -114 -200 15 -151 180 -224 309
-137 56 38 80 90 77 169 -3 57 -8 73 -34 105 -61 77 -159 102 -238 63z"/>
<path d="M8340 18649 c0 -14 5 -19 17 -17 26 5 29 38 4 38 -15 0 -21 -6 -21
-21z"/>
<path d="M9715 18625 c-41 -40 -33 -105 16 -130 39 -21 64 -19 95 9 21 18 28
32 28 61 0 74 -88 112 -139 60z"/>
<path d="M8910 18391 c0 -5 -9 -12 -19 -16 -44 -14 -32 -85 13 -85 13 0 29 6
35 14 17 20 8 90 -13 94 -9 2 -16 -1 -16 -7z"/>
<path d="M10253 18360 c-72 -43 -84 -144 -24 -204 28 -28 38 -31 91 -31 53 0
63 3 91 31 81 81 23 224 -91 224 -19 0 -49 -9 -67 -20z"/>
<path d="M8900 18210 c-24 -24 -24 -29 -4 -80 10 -25 28 -47 45 -55 32 -17
106 -20 143 -5 32 12 44 54 25 89 -36 63 -165 95 -209 51z"/>
<path d="M9322 18218 c-17 -17 -15 -49 4 -76 19 -27 38 -28 64 -2 26 26 25 36
-5 65 -27 28 -45 31 -63 13z"/>
<path d="M9598 18129 c-21 -10 -45 -30 -53 -43 -16 -23 -16 -23 -51 -5 -28 14
-41 15 -65 7 -17 -6 -33 -16 -36 -23 -3 -10 -14 -7 -40 11 -45 31 -64 30 -102
-2 -35 -29 -40 -63 -13 -87 24 -22 92 -36 122 -25 18 6 33 4 57 -9 27 -14 38
-15 62 -6 27 10 30 9 35 -12 9 -35 77 -90 142 -114 126 -48 256 -35 289 29 43
83 36 163 -18 204 -39 30 -221 96 -262 96 -16 -1 -47 -10 -67 -21z"/>
<path d="M8025 18111 c-7 -12 12 -24 25 -16 11 7 4 25 -10 25 -5 0 -11 -4 -15
-9z"/>
<path d="M10807 18106 c-128 -47 -163 -194 -71 -296 113 -124 314 -44 314 126
0 123 -128 213 -243 170z"/>
<path d="M9058 17899 c-12 -6 -18 -22 -18 -43 0 -56 107 -141 155 -122 22 8
18 39 -12 100 -33 69 -79 92 -125 65z"/>
<path d="M11507 17893 c-13 -12 -7 -41 10 -47 21 -8 48 17 40 38 -6 16 -38 22
-50 9z"/>
<path d="M11332 17837 c-54 -20 -103 -67 -129 -125 -68 -148 33 -318 197 -330
73 -5 122 11 172 56 57 51 81 105 81 177 0 95 -58 183 -145 219 -43 19 -129
20 -176 3z"/>
<path d="M9370 17830 c0 -5 5 -10 10 -10 6 0 10 5 10 10 0 6 -4 10 -10 10 -5
0 -10 -4 -10 -10z"/>
<path d="M8559 17804 c-9 -11 -10 -20 -2 -32 24 -39 82 -15 68 28 -8 24 -47
27 -66 4z"/>
<path d="M9952 17804 c-18 -9 -40 -30 -48 -46 -17 -34 -18 -34 -55 -7 -16 11
-36 19 -45 17 -14 -3 -13 -7 6 -30 12 -16 31 -28 42 -28 14 0 18 -5 14 -15 -6
-18 56 -81 100 -100 64 -29 142 19 150 92 11 89 -84 157 -164 117z"/>
<path d="M8690 17782 c-23 -4 -43 -57 -35 -92 4 -17 21 -46 40 -65 25 -27 40
-35 68 -35 40 0 84 33 88 65 4 32 -11 82 -28 97 -17 14 -109 35 -133 30z"/>
<path d="M7863 17754 c-4 -11 1 -23 16 -35 29 -24 53 -14 49 20 -2 20 -9 27
-31 29 -18 2 -29 -2 -34 -14z"/>
<path d="M7716 17561 c-4 -5 -2 -12 3 -15 5 -4 12 -2 15 3 4 5 2 12 -3 15 -5
4 -12 2 -15 -3z"/>
<path d="M10490 17539 c-62 -25 -100 -85 -100 -157 0 -122 133 -201 240 -141
97 55 116 181 38 256 -53 51 -118 66 -178 42z"/>
<path d="M9097 17512 c-37 -40 -9 -102 46 -102 28 0 57 32 57 62 0 25 -36 58
-63 58 -13 0 -31 -8 -40 -18z"/>
<path d="M9628 17422 c-32 -4 -47 -21 -58 -64 -5 -18 -12 -43 -15 -55 -6 -19
-4 -23 16 -23 32 0 65 -53 43 -71 -11 -9 -14 -8 -14 3 0 22 -29 43 -87 62 -72
22 -77 21 -96 -22 -23 -52 -22 -64 11 -94 53 -49 108 -62 146 -33 17 13 21 11
40 -17 27 -41 67 -54 108 -37 35 15 62 67 52 104 -8 32 -49 65 -82 65 l-26 0
32 33 c38 39 42 82 12 119 -21 28 -41 35 -82 30z"/>
<path d="M11015 17276 c-84 -37 -138 -120 -137 -212 1 -99 64 -182 160 -210
165 -48 322 100 282 265 -14 60 -69 127 -124 152 -48 22 -137 24 -181 5z"/>
<path d="M8250 17255 c-17 -21 -5 -45 24 -45 28 0 37 17 24 43 -11 21 -31 22
-48 2z"/>
<path d="M10810 17215 c0 -16 27 -32 37 -21 7 7 -16 36 -28 36 -5 0 -9 -7 -9
-15z"/>
<path d="M10552 17034 c-30 -20 -28 -51 8 -160 17 -50 37 -120 44 -155 l13
-64 6 175 c5 144 3 179 -9 198 -17 26 -32 28 -62 6z"/>
<path d="M7400 17004 c0 -8 5 -12 10 -9 6 4 8 11 5 16 -9 14 -15 11 -15 -7z"/>
<path d="M10233 16990 c-12 -12 -36 -29 -54 -38 -44 -23 -71 -62 -72 -105 l-1
-35 -29 15 c-42 21 -137 18 -186 -6 -77 -40 -89 -88 -41 -165 35 -54 76 -76
144 -76 59 0 109 42 133 110 17 48 17 48 45 34 35 -18 92 -18 129 1 40 21 116
177 103 214 -13 35 -55 62 -106 68 -37 4 -49 2 -65 -17z"/>
<path d="M8796 16957 c-25 -18 -18 -67 12 -78 17 -6 27 -4 42 11 25 25 25 35
0 60 -24 24 -30 24 -54 7z"/>
<path d="M7934 16699 c-3 -6 0 -17 7 -25 18 -17 44 -2 36 20 -7 18 -33 21 -43
5z"/>
<path d="M10455 16700 c-3 -5 -2 -10 4 -10 5 0 13 5 16 10 3 6 2 10 -4 10 -5
0 -13 -4 -16 -10z"/>
<path d="M10765 16705 c-5 -2 -22 -6 -37 -9 -37 -8 -98 -63 -114 -103 -31 -73
-5 -176 55 -221 79 -58 176 -50 247 22 33 33 44 51 49 90 15 98 -37 184 -128
211 -52 15 -55 16 -72 10z"/>
<path d="M9151 16686 c-7 -8 -8 -17 -3 -20 6 -3 13 1 16 10 9 23 2 28 -13 10z"/>
<path d="M10396 16681 c-9 -14 5 -41 20 -41 20 0 30 30 13 41 -18 11 -26 11
-33 0z"/>
<path d="M9343 16660 c-44 -18 -44 -85 0 -110 24 -13 30 -13 55 0 20 12 28 24
30 51 4 50 -37 78 -85 59z"/>
<path d="M7080 16460 c0 -5 5 -10 10 -10 6 0 10 5 10 10 0 6 -4 10 -10 10 -5
0 -10 -4 -10 -10z"/>
<path d="M8485 16396 c-20 -15 -15 -43 10 -52 18 -7 45 12 45 32 0 22 -35 35
-55 20z"/>
<path d="M9882 16365 c-32 -14 -52 -47 -52 -86 0 -32 53 -79 89 -79 75 0 114
93 61 144 -34 32 -59 38 -98 21z"/>
<path d="M9212 16328 c-28 -28 1 -57 34 -33 15 11 16 15 5 29 -16 19 -23 20
-39 4z"/>
<path d="M8145 16285 c-3 -8 -7 -22 -10 -31 -7 -21 12 -54 30 -54 17 0 55 35
55 50 0 15 -38 50 -55 50 -9 0 -18 -7 -20 -15z"/>
<path d="M8875 16260 c-15 -16 -16 -24 -7 -45 14 -30 55 -58 79 -53 10 2 24
16 31 31 11 22 11 32 0 55 -17 36 -75 43 -103 12z"/>
<path d="M9586 16188 c-9 -12 -16 -28 -16 -35 0 -12 4 -15 33 -17 6 -1 17 -10
22 -21 15 -28 51 -31 65 -5 15 28 -3 50 -41 50 -22 0 -29 5 -29 19 0 30 -17
34 -34 9z"/>
<path d="M9326 16183 c-8 -21 6 -35 27 -27 21 8 22 30 1 38 -21 8 -21 8 -28
-11z"/>
<path d="M10624 16165 c-8 -19 23 -68 39 -62 7 2 16 16 22 31 7 21 6 29 -5 36
-23 14 -50 12 -56 -5z"/>
<path d="M9715 16160 c3 -5 13 -10 21 -10 8 0 14 5 14 10 0 6 -9 10 -21 10
-11 0 -17 -4 -14 -10z"/>
<path d="M7630 16140 c0 -5 5 -10 10 -10 6 0 10 5 10 10 0 6 -4 10 -10 10 -5
0 -10 -4 -10 -10z"/>
<path d="M9026 16081 c-21 -24 -20 -37 6 -55 30 -21 60 -4 56 31 -4 34 -40 48
-62 24z"/>
<path d="M9972 16091 c2 -7 7 -12 11 -12 12 1 9 15 -3 20 -7 2 -11 -2 -8 -8z"/>
<path d="M10414 16090 c-11 -4 -33 -22 -47 -40 -71 -84 1 -219 111 -207 98 11
149 121 95 203 -28 44 -107 65 -159 44z"/>
<path d="M10646 15935 c-6 -17 2 -45 14 -45 5 0 15 -3 24 -6 24 -9 31 23 11
46 -22 24 -41 26 -49 5z"/>
<path d="M11025 15903 c-25 -6 -55 -32 -55 -48 0 -7 -13 -18 -30 -25 -77 -32
-131 -136 -111 -214 6 -23 8 -51 5 -63 -9 -34 13 -66 43 -60 14 2 39 -3 56
-11 34 -18 108 -22 144 -9 18 7 23 3 33 -27 14 -42 62 -86 95 -86 25 0 55 24
55 43 0 7 9 18 20 25 11 7 20 19 20 28 0 8 14 27 30 41 18 15 30 34 30 49 0
16 9 28 29 39 33 16 71 61 71 81 0 16 -61 44 -94 44 -12 0 -26 4 -31 9 -6 5
-20 5 -33 0 -17 -6 -23 -15 -20 -32 3 -24 -33 -69 -65 -80 -16 -6 -17 -2 -11
31 4 20 15 42 24 49 54 38 8 183 -57 183 -13 0 -35 -11 -48 -25 -23 -26 -40
-21 -29 8 5 15 -28 58 -43 56 -5 -1 -17 -4 -28 -6z"/>
<path d="M10765 15859 c-5 -14 -2 -25 6 -30 21 -13 34 -5 34 22 0 31 -31 38
-40 8z"/>
<path d="M10628 15850 c-36 -27 -53 -72 -38 -99 8 -16 20 -21 49 -21 54 0 85
27 85 75 0 61 -48 83 -96 45z"/>
<path d="M8172 15823 c2 -10 10 -18 18 -18 8 0 16 8 18 18 2 12 -3 17 -18 17
-15 0 -20 -5 -18 -17z"/>
<path d="M9566 15774 c-19 -18 -21 -55 -4 -72 7 -7 24 -12 38 -12 33 0 50 17
50 50 0 14 -5 31 -12 38 -17 17 -54 15 -72 -4z"/>
<path d="M9947 15655 c-37 -36 -13 -71 47 -68 110 4 117 61 9 79 -30 4 -44 2
-56 -11z"/>
<path d="M8587 15623 c-12 -11 -7 -48 9 -71 23 -33 65 -26 79 12 8 24 6 31
-14 47 -23 19 -61 25 -74 12z"/>
<path d="M7315 15590 c3 -5 8 -10 11 -10 2 0 4 5 4 10 0 6 -5 10 -11 10 -5 0
-7 -4 -4 -10z"/>
<path d="M11470 15587 c-54 -17 -134 -103 -155 -166 -49 -148 43 -307 197
-340 111 -24 226 29 282 129 59 105 36 244 -53 322 -72 64 -177 85 -271 55z"/>
<path d="M12050 15560 c0 -5 5 -10 10 -10 6 0 10 5 10 10 0 6 -4 10 -10 10 -5
0 -10 -4 -10 -10z"/>
<path d="M10137 15544 c-4 -4 -7 -16 -7 -26 0 -10 -4 -18 -10 -18 -24 0 -50
-41 -50 -79 0 -31 6 -44 26 -60 15 -12 32 -21 39 -21 6 0 17 -11 23 -25 6 -14
18 -25 26 -25 18 0 30 30 16 44 -7 7 -4 16 9 30 32 35 31 86 -1 118 -13 13
-27 31 -33 42 -11 22 -28 30 -38 20z"/>
<path d="M8717 15516 c-7 -18 1 -26 25 -26 13 0 18 6 16 17 -4 22 -34 29 -41
9z"/>
<path d="M10545 15446 c-22 -16 -14 -46 14 -46 19 0 31 25 24 48 -6 16 -15 15
-38 -2z"/>
<path d="M10914 15386 c-8 -22 3 -33 18 -18 9 9 9 15 0 24 -9 9 -13 7 -18 -6z"/>
<path d="M10656 15235 c-47 -17 -66 -33 -83 -72 -38 -93 23 -193 120 -193 21
0 48 -7 61 -15 22 -14 23 -19 13 -50 -9 -29 -12 -32 -22 -19 -10 14 -12 14
-24 0 -18 -21 -6 -50 18 -43 16 4 26 -8 50 -58 17 -34 51 -81 75 -103 l43 -40
-23 -13 c-42 -22 -26 -43 22 -30 18 5 28 14 28 24 -1 12 6 17 26 17 15 0 43
11 62 24 l35 23 26 -32 c28 -35 34 -60 24 -91 -4 -12 -4 -32 1 -45 11 -29 5
-49 -14 -49 -9 0 -12 5 -9 10 3 6 -1 10 -9 10 -9 0 -16 -4 -16 -8 0 -5 -14 -7
-30 -4 -37 5 -77 -19 -86 -52 -4 -18 -15 -25 -46 -30 -82 -13 -140 -103 -124
-192 9 -47 73 -111 120 -120 89 -16 179 42 192 124 4 29 10 39 20 35 33 -12
87 9 129 51 40 40 54 68 70 140 l6 29 20 -21 c10 -12 19 -26 19 -32 0 -17 39
-50 59 -50 11 0 34 12 51 27 28 23 32 31 27 64 -4 32 -1 40 19 54 l24 15 0
-52 c2 -148 115 -261 264 -262 71 -1 159 36 199 83 l23 28 13 -29 c7 -16 23
-34 36 -40 20 -9 21 -14 14 -51 -8 -47 3 -123 25 -164 20 -40 82 -99 125 -119
54 -26 152 -30 208 -9 64 24 126 85 153 147 31 72 25 176 -14 242 -55 93 -168
146 -272 127 -57 -11 -129 -46 -154 -75 -8 -11 -30 -16 -66 -16 -30 0 -54 2
-54 4 0 2 7 21 16 42 20 48 15 174 -9 220 -22 44 -71 90 -121 117 -33 17 -58
22 -124 22 l-83 0 -10 38 c-5 21 -19 47 -30 58 -11 11 -19 33 -19 54 0 24 -9
45 -29 67 -26 29 -36 33 -78 33 -38 0 -58 -6 -84 -26 l-35 -27 -29 23 c-49 40
-161 58 -220 35 -20 -7 -32 -7 -46 4 -18 12 -13 14 46 20 84 8 95 13 95 41 0
60 -175 145 -297 145 -77 0 -107 -16 -111 -59 -4 -40 13 -61 69 -87 l41 -18
-57 -14 c-73 -18 -90 -7 -80 54 16 108 -79 193 -179 159z m796 -527 c-8 -8 -9
-4 -5 13 4 13 8 18 11 10 2 -7 -1 -18 -6 -23z m-88 -120 c-4 -13 -15 -45 -25
-73 -16 -45 -18 -47 -18 -20 -1 17 -8 41 -17 53 -9 13 -14 25 -13 26 9 8 65
35 72 36 5 0 5 -10 1 -22z"/>
<path d="M9264 15206 c-9 -24 4 -48 23 -44 12 2 18 12 18 28 0 29 -32 41 -41
16z"/>
<path d="M8410 14960 c0 -5 5 -10 10 -10 6 0 10 5 10 10 0 6 -4 10 -10 10 -5
0 -10 -4 -10 -10z"/>
<path d="M9800 14910 c-11 -11 -20 -29 -20 -39 0 -20 35 -51 57 -51 18 0 53
37 53 55 0 8 -9 24 -20 35 -11 11 -27 20 -35 20 -8 0 -24 -9 -35 -20z"/>
<path d="M10627 14812 c-10 -10 -17 -29 -17 -41 0 -19 4 -22 36 -19 48 4 65
29 40 57 -23 26 -38 26 -59 3z"/>
<path d="M10306 14769 c-48 -38 -24 -102 32 -83 29 10 64 67 55 90 -8 21 -57
17 -87 -7z"/>
<path d="M10200 14660 c0 -5 5 -10 11 -10 5 0 7 5 4 10 -3 6 -8 10 -11 10 -2
0 -4 -4 -4 -10z"/>
<path d="M8956 14652 c-3 -6 -1 -14 5 -17 15 -10 25 3 12 16 -7 7 -13 7 -17 1z"/>
<path d="M10342 14645 c-38 -17 -66 -71 -56 -110 3 -14 20 -36 36 -50 61 -52
144 -19 155 61 4 35 1 45 -23 72 -35 38 -69 46 -112 27z"/>
<path d="M13140 14641 c-80 -26 -157 -100 -178 -169 -53 -176 68 -344 248
-344 73 0 135 27 188 82 120 123 83 332 -73 412 -43 22 -144 33 -185 19z"/>
<path d="M10980 14598 c-22 -37 -25 -60 -10 -89 23 -42 120 -11 120 39 0 34
-38 82 -65 82 -18 0 -31 -10 -45 -32z"/>
<path d="M9503 14353 c-18 -6 -16 -50 1 -56 8 -3 22 1 33 8 28 21 -1 62 -34
48z"/>
<path d="M11492 14318 c-18 -18 -15 -42 7 -62 19 -17 21 -17 46 8 15 15 25 34
23 44 -4 21 -58 28 -76 10z"/>
<path d="M13670 14248 c-70 -36 -103 -86 -108 -162 -3 -49 0 -71 16 -102 80
-155 289 -149 363 11 76 165 -107 336 -271 253z"/>
<path d="M11444 14246 c-6 -16 20 -56 38 -56 16 0 8 37 -12 55 -18 16 -20 16
-26 1z"/>
<path d="M9594 14219 c-7 -12 12 -29 34 -29 18 0 15 27 -4 34 -21 8 -22 8 -30
-5z"/>
<path d="M10527 14122 c-29 -30 -42 -89 -19 -84 6 1 12 -6 12 -15 0 -10 5 -25
10 -33 9 -13 12 -13 23 1 6 8 20 18 29 22 22 8 38 69 29 104 -11 40 -48 42
-84 5z"/>
<path d="M11395 14111 c-67 -30 -125 -113 -125 -178 0 -8 -12 -5 -35 8 -22 13
-45 19 -62 16 -19 -3 -31 1 -43 16 -20 24 -42 19 -64 -15 -32 -48 -30 -80 6
-126 34 -44 128 -100 147 -87 6 3 11 21 11 38 0 18 12 50 25 72 19 30 25 35
25 20 0 -31 47 -97 87 -125 47 -32 145 -40 194 -15 128 65 164 214 77 320 -59
71 -160 94 -243 56z"/>
<path d="M10021 14051 c-25 -25 -27 -49 -5 -79 23 -34 83 -27 104 11 13 24 13
30 0 55 -20 36 -70 42 -99 13z"/>
<path d="M12840 14051 c-103 -32 -163 -109 -163 -211 0 -226 306 -301 407 -99
34 69 34 129 1 195 -49 95 -152 143 -245 115z"/>
<path d="M10479 13901 c-21 -21 -29 -39 -29 -63 0 -43 15 -58 56 -58 66 0 99
89 48 129 -35 27 -40 27 -75 -8z"/>
<path d="M14256 13900 c-67 -21 -115 -104 -101 -177 8 -46 59 -100 105 -114
143 -43 258 128 163 242 -44 52 -101 68 -167 49z"/>
<path d="M11967 13807 c-87 -27 -146 -108 -147 -200 -1 -193 245 -281 368
-132 93 114 40 288 -102 330 -58 17 -68 18 -119 2z"/>
<path d="M10580 13789 c-39 -16 -59 -39 -66 -76 -18 -96 90 -160 165 -97 59
50 46 140 -24 170 -39 16 -41 16 -75 3z"/>
<path d="M9190 13780 c0 -5 5 -10 10 -10 6 0 10 5 10 10 0 6 -4 10 -10 10 -5
0 -10 -4 -10 -10z"/>
<path d="M12600 13759 c0 -23 22 -49 40 -49 23 0 27 29 8 48 -15 15 -48 16
-48 1z"/>
<path d="M11135 13750 c-3 -5 -1 -10 4 -10 6 0 11 5 11 10 0 6 -2 10 -4 10 -3
0 -8 -4 -11 -10z"/>
<path d="M13360 13658 c-77 -53 -100 -139 -58 -213 25 -43 93 -85 138 -85 36
0 110 40 134 72 11 16 21 49 24 80 3 44 0 59 -20 88 -54 79 -149 105 -218 58z"/>
<path d="M11612 13548 c-9 -12 0 -58 12 -58 20 0 36 16 36 35 0 13 -7 26 -16
29 -21 8 -20 8 -32 -6z"/>
<path d="M11101 13493 c-66 -33 -90 -114 -53 -182 64 -119 245 -72 245 64 0
101 -100 163 -192 118z"/>
<path d="M12425 13490 c-10 -17 3 -60 19 -60 23 0 41 29 29 48 -13 21 -39 27
-48 12z"/>
<path d="M9723 13470 c-3 -11 -9 -20 -14 -20 -19 0 -8 -27 25 -63 35 -39 52
-40 89 -9 17 15 23 58 9 79 -9 14 -56 33 -84 33 -11 0 -22 -8 -25 -20z"/>
<path d="M12280 13480 c0 -33 26 -58 81 -78 38 -14 61 -17 65 -11 8 13 -41 65
-78 85 -31 16 -68 19 -68 4z"/>
<path d="M12510 13449 c-62 -25 -102 -88 -102 -160 0 -150 181 -222 288 -115
105 105 27 288 -123 285 -21 0 -49 -5 -63 -10z"/>
<path d="M13929 13305 c-15 -8 -34 -31 -44 -51 -24 -50 -13 -95 32 -134 32
-28 41 -32 80 -27 75 8 125 77 103 143 -24 72 -105 105 -171 69z"/>
<path d="M10095 13270 c-8 -13 4 -32 16 -25 12 8 12 35 0 35 -6 0 -13 -4 -16
-10z"/>
<path d="M10260 13180 c-11 -11 -20 -26 -20 -33 0 -24 31 -57 55 -57 50 0 73
60 37 93 -25 22 -48 21 -72 -3z"/>
<path d="M11626 13159 c-85 -74 -57 -197 52 -230 37 -11 45 -9 89 12 39 20 51
32 67 71 18 45 18 49 2 92 -34 88 -141 116 -210 55z"/>
<path d="M10193 13123 c-21 -7 -15 -33 7 -33 11 0 20 6 20 14 0 18 -11 25 -27
19z"/>
<path d="M13049 13077 c-88 -59 -63 -197 41 -227 109 -31 198 87 145 190 -31
61 -124 79 -186 37z"/>
<path d="M10313 12983 c-4 -11 3 -24 23 -40 50 -40 73 -21 38 32 -19 29 -52
33 -61 8z"/>
<path d="M14504 12970 c-30 -12 -54 -49 -54 -83 0 -34 48 -87 79 -87 94 0 132
123 50 165 -31 17 -44 18 -75 5z"/>
<path d="M9420 12910 c0 -5 5 -10 10 -10 6 0 10 5 10 10 0 6 -4 10 -10 10 -5
0 -10 -4 -10 -10z"/>
<path d="M10802 12883 c-32 -27 -37 -64 -12 -96 29 -37 80 -37 109 -1 27 35
26 59 -4 89 -28 29 -65 32 -93 8z"/>
<path d="M12213 12845 c-42 -18 -66 -57 -66 -107 0 -35 6 -47 36 -75 52 -47
105 -47 153 1 26 26 34 42 34 70 0 52 -25 95 -65 112 -42 17 -51 17 -92 -1z"/>
<path d="M13640 12753 c-30 -11 -60 -47 -66 -79 -17 -93 99 -153 167 -85 73
74 -4 199 -101 164z"/>
<path d="M15046 12619 c-48 -38 -20 -109 42 -109 57 0 83 69 42 110 -26 26
-51 25 -84 -1z"/>
<path d="M9963 12604 c-8 -21 13 -42 28 -27 13 13 5 43 -11 43 -6 0 -13 -7
-17 -16z"/>
<path d="M11363 12575 c-48 -20 -57 -65 -22 -109 15 -19 30 -26 54 -26 24 0
39 7 54 26 26 33 26 54 1 86 -25 32 -49 39 -87 23z"/>
<path d="M14603 12528 c-25 -31 -2 -71 48 -83 54 -13 83 61 34 83 -34 16 -70
15 -82 0z"/>
<path d="M12780 12513 c-58 -21 -79 -96 -40 -145 49 -63 160 -23 160 57 0 58
-67 107 -120 88z"/>
<path d="M13157 12480 c-33 -10 -83 -34 -112 -54 -63 -42 -80 -80 -72 -166 6
-73 29 -117 72 -137 31 -15 37 -15 80 1 25 10 72 42 104 71 125 117 151 251
56 291 -43 18 -57 17 -128 -6z"/>
<path d="M14168 12390 c-35 -36 -33 -71 8 -107 34 -31 60 -29 96 7 25 26 29
36 24 63 -13 68 -78 87 -128 37z"/>
<path d="M12050 12366 c0 -9 7 -16 16 -16 17 0 14 22 -4 28 -7 2 -12 -3 -12
-12z"/>
<path d="M10504 12296 c-10 -26 4 -48 28 -44 17 2 23 10 23 28 0 18 -6 26 -23
28 -13 2 -25 -3 -28 -12z"/>
<path d="M15602 12288 c-21 -21 -14 -57 14 -70 31 -14 57 -1 62 31 7 42 -46
69 -76 39z"/>
<path d="M11920 12253 c-42 -15 -53 -70 -20 -103 27 -27 56 -25 86 5 29 29 26
58 -8 88 -21 17 -32 19 -58 10z"/>
<path d="M10045 12230 c-7 -12 2 -30 16 -30 5 0 9 9 9 20 0 21 -15 27 -25 10z"/>
<path d="M13301 12154 c-27 -34 -26 -57 2 -88 32 -36 74 -39 107 -6 43 43 7
120 -55 120 -24 0 -39 -7 -54 -26z"/>
<path d="M15547 12120 c-38 -33 -61 -95 -55 -150 2 -27 10 -39 38 -55 29 -17
34 -25 32 -49 -2 -18 4 -40 17 -57 12 -16 21 -33 21 -38 0 -35 76 -55 100 -26
7 8 18 15 25 15 20 0 74 48 90 81 23 44 19 96 -10 124 -13 14 -28 25 -33 25
-5 0 -12 16 -15 35 -17 106 -137 160 -210 95z"/>
<path d="M16373 12098 c-31 -41 -20 -78 23 -78 17 0 25 7 30 24 11 45 -29 85
-53 54z"/>
<path d="M11463 12075 c-22 -25 -8 -65 27 -77 48 -17 72 59 25 80 -32 15 -37
15 -52 -3z"/>
<path d="M14738 12068 c-31 -24 -27 -74 7 -90 41 -18 75 3 75 46 0 49 -45 72
-82 44z"/>
<path d="M14047 12034 c-10 -10 12 -44 29 -44 10 0 14 8 12 22 -3 22 -27 35
-41 22z"/>
<path d="M11054 11975 c-8 -21 2 -45 19 -45 20 0 40 27 33 45 -7 19 -45 20
-52 0z"/>
<path d="M16161 11957 c-17 -21 -3 -49 23 -45 15 2 21 10 21 28 0 28 -26 38
-44 17z"/>
<path d="M12457 11912 c-34 -37 -15 -82 33 -82 32 0 50 17 50 46 0 48 -52 70
-83 36z"/>
<path d="M14852 11907 c-14 -17 2 -42 22 -34 20 8 20 21 2 36 -10 8 -16 8 -24
-2z"/>
<path d="M13862 11838 c-24 -31 -23 -57 2 -83 29 -29 43 -31 74 -9 26 18 30
65 6 88 -19 19 -68 21 -82 4z"/>
<path d="M16575 11774 c-13 -14 -32 -46 -41 -70 -17 -44 -16 -46 3 -72 37 -50
125 -33 168 32 14 21 15 31 6 58 -27 77 -90 101 -136 52z"/>
<path d="M18994 11779 c-8 -14 11 -33 25 -25 11 7 4 36 -9 36 -5 0 -12 -5 -16
-11z"/>
<path d="M15291 11727 c-14 -17 -6 -43 16 -51 22 -9 45 13 41 38 -4 25 -40 33
-57 13z"/>
<path d="M11603 11654 c-3 -8 -1 -20 5 -26 16 -16 42 -2 42 22 0 24 -38 28
-47 4z"/>
<path d="M16712 11623 c2 -10 10 -18 18 -18 8 0 16 8 18 18 2 12 -3 17 -18 17
-15 0 -20 -5 -18 -17z"/>
<path d="M15770 11615 c0 -8 5 -15 10 -15 6 0 10 7 10 15 0 8 -4 15 -10 15 -5
0 -10 -7 -10 -15z"/>
<path d="M13004 11586 c-15 -40 21 -80 54 -60 37 24 21 74 -25 74 -13 0 -26
-6 -29 -14z"/>
<path d="M14425 11507 c-13 -10 -16 -21 -12 -39 8 -30 31 -42 57 -28 26 14 31
35 14 59 -17 24 -33 26 -59 8z"/>
<path d="M15021 11467 c-14 -17 -4 -27 25 -27 21 0 39 22 27 34 -11 11 -40 6
-52 -7z"/>
<path d="M19550 11449 c0 -5 5 -7 10 -4 6 3 10 8 10 11 0 2 -4 4 -10 4 -5 0
-10 -5 -10 -11z"/>
<path d="M15855 11400 c-4 -6 -3 -16 3 -22 6 -6 12 -6 17 2 4 6 3 16 -3 22 -6
6 -12 6 -17 -2z"/>
<path d="M12627 11383 c-14 -13 -6 -40 16 -61 13 -12 26 -22 30 -22 12 0 8 30
-8 60 -15 30 -26 36 -38 23z"/>
<path d="M16369 11341 c-16 -16 -29 -34 -29 -39 0 -14 59 -62 76 -62 8 0 14
-9 14 -20 0 -26 36 -46 56 -29 20 16 18 45 -5 68 -19 19 -19 20 10 30 60 21
23 81 -50 81 -34 0 -49 -6 -72 -29z"/>
<path d="M12155 11340 c-4 -7 -3 -16 3 -22 14 -14 45 -2 40 15 -6 16 -34 21
-43 7z"/>
<path d="M14601 11309 c-9 -28 -9 -30 5 -18 25 21 37 49 20 49 -8 0 -19 -14
-25 -31z"/>
<path d="M16182 11308 c-30 -38 -24 -103 11 -114 42 -13 79 80 45 114 -16 16
-43 15 -56 0z"/>
<path d="M13560 11265 c-18 -22 -1 -50 31 -50 20 0 24 5 24 30 0 23 -5 31 -21
33 -11 2 -27 -4 -34 -13z"/>
<path d="M16879 11219 c-7 -15 -8 -24 0 -32 14 -14 41 9 41 34 0 26 -27 24
-41 -2z"/>
<path d="M14980 11160 c0 -13 7 -20 18 -20 24 0 32 8 25 26 -8 22 -43 17 -43
-6z"/>
<path d="M11832 11158 c-17 -17 -15 -44 5 -63 12 -12 25 -15 52 -10 20 4 40
10 44 14 14 14 -3 37 -39 54 -41 20 -46 21 -62 5z"/>
<path d="M12260 11151 c0 -13 26 -32 33 -24 8 7 -11 33 -24 33 -5 0 -9 -4 -9
-9z"/>
<path d="M15973 11125 c-43 -18 -54 -59 -25 -88 19 -19 23 -19 58 -6 48 18 83
63 68 87 -14 22 -60 26 -101 7z"/>
<path d="M12720 11080 c-9 -16 -6 -22 21 -36 40 -20 58 -7 41 31 -14 30 -47
33 -62 5z"/>
<path d="M12605 11017 c-57 -49 -39 -180 32 -234 50 -38 126 -43 172 -11 49
33 75 80 67 123 -20 105 -198 185 -271 122z"/>
<path d="M14114 10935 c-8 -19 12 -36 33 -28 19 7 12 37 -10 41 -9 2 -20 -4
-23 -13z"/>
<path d="M16613 10910 c-68 -41 -73 -109 -13 -174 46 -50 86 -62 134 -42 69
29 96 108 62 175 -32 61 -119 80 -183 41z"/>
<path d="M13093 10893 c-31 -6 -41 -48 -18 -73 23 -26 47 -25 70 0 15 16 17
26 9 48 -10 28 -22 33 -61 25z"/>
<path d="M14161 10811 c-15 -10 -8 -41 9 -41 15 0 25 29 14 40 -5 5 -15 5 -23
1z"/>
<path d="M13265 10700 c-3 -5 -1 -10 4 -10 6 0 11 5 11 10 0 6 -2 10 -4 10 -3
0 -8 -4 -11 -10z"/>
<path d="M14675 10610 c4 -6 11 -8 16 -5 14 9 11 15 -7 15 -8 0 -12 -5 -9 -10z"/>
<path d="M16657 10586 c-17 -17 -11 -72 9 -80 18 -7 64 10 64 24 0 22 -31 70
-45 70 -7 0 -20 -6 -28 -14z"/>
<path d="M13810 10380 c0 -5 5 -10 11 -10 5 0 7 5 4 10 -3 6 -8 10 -11 10 -2
0 -4 -4 -4 -10z"/>
<path d="M14030 10160 c-9 -16 -8 -22 4 -26 21 -8 36 3 36 27 0 25 -26 25 -40
-1z"/>
</g>
</svg>
