<?xml version="1.0" standalone="no"?>
<!DOCTYPE svg PUBLIC "-//W3C//DTD SVG 20010904//EN"
 "http://www.w3.org/TR/2001/REC-SVG-20010904/DTD/svg10.dtd">
<svg version="1.0" xmlns="http://www.w3.org/2000/svg"
 width="600.000000pt" height="600.000000pt" viewBox="0 0 600.000000 600.000000"
 preserveAspectRatio="xMidYMid meet">

<!-- White background disk so center cutouts show up as pure crisp white (#FFFFFF) -->
<circle cx="300" cy="300" r="280" fill="#FFFFFF" />

<g transform="translate(0.000000,600.000000) scale(0.100000,-0.100000)"
fill="#000000" stroke="none">
<path d="M2795 5694 c-443 -48 -794 -156 -1128 -346 -522 -299 -939 -771
-1162 -1316 -286 -700 -271 -1465 42 -2159 127 -282 307 -538 547 -779 278
-278 549 -458 902 -599 598 -241 1276 -257 1887 -46 880 305 1551 1056 1751
1961 48 219 60 338 60 590 0 252 -12 371 -60 590 -182 821 -758 1526 -1533
1875 -211 94 -467 169 -707 205 -134 20 -497 35 -599 24z m420 -1159 c140 -21
242 -49 369 -100 114 -46 319 -162 313 -178 -1 -5 -64 -41 -138 -80 l-136 -71
-89 41 c-177 82 -334 116 -534 116 -269 0 -497 -71 -724 -226 -283 -194 -479
-510 -530 -859 -22 -147 -19 -338 6 -338 5 0 519 259 1141 576 623 317 1313
669 1535 781 l402 205 0 -159 0 -158 -328 -166 c-500 -253 -3113 -1584 -3229
-1645 l-103 -53 0 159 0 160 78 39 c97 49 134 80 170 140 26 45 27 50 34 271
7 244 21 330 78 502 191 569 709 988 1300 1051 90 10 295 5 385 -8z m1613
-922 l-3 -156 -89 -49 c-108 -59 -115 -64 -152 -131 -29 -52 -29 -54 -35 -267
-9 -307 -45 -462 -160 -695 -204 -415 -575 -709 -1034 -821 -399 -97 -841 -22
-1187 202 -38 24 -68 47 -68 52 0 4 63 39 139 77 l139 69 79 -36 c102 -47 223
-84 330 -103 111 -19 326 -19 439 0 422 74 787 369 953 772 59 143 83 262 88
438 3 88 1 169 -4 181 -7 19 -113 -34 -1543 -763 -844 -430 -1538 -783 -1542
-783 -5 0 -8 69 -8 154 l0 154 588 301 c1461 747 3058 1559 3065 1560 4 1 6
-70 5 -156z"/>
</g>
</svg>
